<svg id="Capa_1" data-name="Capa 1" xmlns="http://www.w3.org/2000/svg" viewBox="0 0 152 196"><defs><style>.cls-1{fill:#fff;}.cls-2{fill:#8d3c42;}.cls-3{fill:#6a242e;}.cls-4{fill:#731d28;}.cls-5{fill:#7a1e2b;}.cls-6{fill:#731621;}.cls-7{fill:#791b29;}.cls-8{fill:#5c2127;}.cls-9{fill:#8a2837;}.cls-10{fill:#943346;}.cls-11{fill:#8f2936;}.cls-12{fill:#8f252f;}.cls-13{fill:#932734;}.cls-14{fill:#7c1f31;}.cls-15{fill:#9b3e51;}.cls-16{fill:#8b2a3b;}.cls-17{fill:#ad4455;}.cls-18{fill:#a13847;}.cls-19{fill:#51191a;}.cls-20{fill:#812731;}.cls-21{fill:#aa6d68;}.cls-22{fill:#ae6667;}.cls-23{fill:#a8766f;}.cls-24{fill:#a3726b;}.cls-25{fill:#743f37;}.cls-26{fill:#724039;}.cls-27{fill:#754241;}.cls-28{fill:#60292e;}.cls-29{fill:#774546;}.cls-30{fill:#7d494d;}.cls-31{fill:#7d4649;}.cls-32{fill:#8c5457;}.cls-33{fill:#945a56;}.cls-34{fill:#98615e;}.cls-35{fill:#ab716f;}.cls-36{fill:#dea8a6;}.cls-37{fill:#c18786;}.cls-38{fill:#b07672;}.cls-39{fill:#ac7473;}.cls-40{fill:#ca9794;}.cls-41{fill:#d8a5a2;}.cls-42{fill:#ebbcb6;}.cls-43{fill:#c8968f;}.cls-44{fill:#b27d77;}.cls-45{fill:#a26e70;}.cls-46{fill:#a3706f;}.cls-47{fill:#9c6968;}.cls-48{fill:#aa706e;}.cls-49{fill:#b3827d;}.cls-50{fill:#ac7572;}.cls-51{fill:#b88783;}.cls-52{fill:#b98b8b;}.cls-53{fill:#a97b7d;}.cls-54{fill:#aa7e7f;}.cls-55{fill:#a97979;}.cls-56{fill:#966266;}.cls-57{fill:#945a58;}.cls-58{fill:#a67475;}.cls-59{fill:#8e5750;}.cls-60{fill:#986061;}.cls-61{fill:#b17d81;}.cls-62{fill:#af6f66;}.cls-63{fill:#b77871;}.cls-64{fill:#b57978;}.cls-65{fill:#9e6055;}.cls-66{fill:#a06459;}.cls-67{fill:#a1675b;}.cls-68{fill:#a46a5f;}.cls-69{fill:#773e37;}.cls-70{fill:#895049;}.cls-71{fill:#8e5655;}.cls-72{fill:#7d443d;}.cls-73{fill:#7a3d42;}.cls-74{fill:#af7571;}.cls-75{fill:#ae756e;}.cls-76{fill:#9c5b5f;}.cls-77{fill:#b47b74;}.cls-78{fill:#b3776f;}.cls-79{fill:#b5766f;}.cls-80{fill:#b2736a;}.cls-81{fill:#b77a77;}.cls-82{fill:#b87974;}.cls-83{fill:#ad7671;}.cls-84{fill:#aa756f;}.cls-85{fill:#ab7165;}.cls-86{fill:#a46e62;}.cls-87{fill:#ab7366;}.cls-88{fill:#b0716c;}.cls-89{fill:#ab726b;}.cls-90{fill:#ba7b76;}.cls-91{fill:#ad7166;}.cls-92{fill:#b67571;}.cls-93{fill:#c3847d;}.cls-94{fill:#bd8180;}.cls-95{fill:#734c45;}.cls-96{fill:#c08077;}.cls-97{fill:#b27269;}.cls-98{fill:#c08780;}.cls-99{fill:#b57f7f;}.cls-100{fill:#b88582;}.cls-101{fill:#bb8884;}.cls-102{fill:#c18585;}.cls-103{fill:#c48c8b;}.cls-104{fill:#c98e8a;}.cls-105{fill:#be7f76;}.cls-106{fill:#d0958f;}.cls-107{fill:#d29c9c;}.cls-108{fill:#cc928e;}.cls-109{fill:#cb9692;}.cls-110{fill:#b98d84;}.cls-111{fill:#926359;}.cls-112{fill:#97655c;}.cls-113{fill:#794740;}.cls-114{fill:#956a63;}.cls-115{fill:#956863;}.cls-116{fill:#996c67;}.cls-117{fill:#875651;}.cls-118{fill:#885b58;}.cls-119{fill:#9b6c66;}.cls-120{fill:#724a52;}.cls-121{fill:#724647;}.cls-122{fill:#88564f;}.cls-123{fill:#9a6b63;}.cls-124{fill:#83574e;}.cls-125{fill:#8b5f56;}.cls-126{fill:#8d584a;}.cls-127{fill:#552a23;}.cls-128{fill:#3b1d1b;}.cls-129{fill:#31171a;}.cls-130{fill:#392325;}.cls-131{fill:#4d2f37;}.cls-132{fill:#694545;}.cls-133{fill:#805751;}.cls-134{fill:#946d66;}.cls-135{fill:#9f7670;}.cls-136{fill:#250512;}.cls-137{fill:#27060d;}.cls-138{fill:#23131e;}.cls-139{fill:#2e1a1c;}.cls-140{fill:#190913;}.cls-141{fill:#42231e;}.cls-142{fill:#51261d;}.cls-143{fill:#5f3028;}.cls-144{fill:#673832;}.cls-145{fill:#693c36;}.cls-146{fill:#885b55;}.cls-147{fill:#a57670;}.cls-148{fill:#633a36;}.cls-149{fill:#744c4c;}.cls-150{fill:#6d4545;}.cls-151{fill:#371925;}.cls-152{fill:#52343e;}.cls-153{fill:#683d37;}.cls-154{fill:#68413c;}.cls-155{fill:#673e38;}.cls-156{fill:#603d37;}.cls-157{fill:#97797b;}.cls-158{fill:#987879;}.cls-159{fill:#846e70;}.cls-160{fill:#75605d;}.cls-161{fill:#1d0f0f;}.cls-162{fill:#1f0c10;}.cls-163{fill:#0f0209;}.cls-164{fill:#11040b;}.cls-165{fill:#140404;}.cls-166{fill:#170b0d;}.cls-167{fill:#161014;}.cls-168{fill:#241b20;}.cls-169{fill:#150706;}.cls-170{fill:#110710;}.cls-171{fill:#12020f;}.cls-172{fill:#130617;}.cls-173{fill:#0f050d;}.cls-174{fill:#71656f;}.cls-175{fill:#100513;}.cls-176{fill:#261b29;}.cls-177{fill:#1b1523;}.cls-178{fill:#170b19;}.cls-179{fill:#59485a;}.cls-180{fill:#827080;}.cls-181{fill:#8e7c8a;}.cls-182{fill:#51271b;}.cls-183{fill:#5f3a31;}.cls-184{fill:#5e332d;}.cls-185{fill:#844f47;}.cls-186{fill:#7e4c45;}.cls-187{fill:#7c4c42;}.cls-188{fill:#532b21;}.cls-189{fill:#4f271d;}.cls-190{fill:#4d271c;}.cls-191{fill:#643d36;}.cls-192{fill:#4f2620;}.cls-193{fill:#4d241e;}.cls-194{fill:#5b362e;}.cls-195{fill:#4d2e2b;}.cls-196{fill:#482b27;}.cls-197{fill:#6a4c42;}.cls-198{fill:#674a46;}.cls-199{fill:#6e5455;}.cls-200{fill:#6a4c54;}.cls-201{fill:#4d2b2c;}.cls-202{fill:#4c2425;}.cls-203{fill:#613834;}.cls-204{fill:#7e514c;}.cls-205{fill:#8c5f5a;}.cls-206{fill:#90635e;}.cls-207{fill:#92635b;}.cls-208{fill:#91655c;}.cls-209{fill:#875d51;}.cls-210{fill:#84554b;}.cls-211{fill:#7b4c42;}.cls-212{fill:#ac7362;}.cls-213{fill:#a97162;}.cls-214{fill:#b77f72;}.cls-215{fill:#cca19b;}.cls-216{fill:#d2a6a3;}.cls-217{fill:#d2a69d;}.cls-218{fill:#c69b94;}.cls-219{fill:#98716a;}.cls-220{fill:#b4887b;}.cls-221{fill:#c2918a;}.cls-222{fill:#c4938c;}.cls-223{fill:#73503a;}.cls-224{fill:#885d4c;}.cls-225{fill:#82584c;}.cls-226{fill:#8d5e54;}.cls-227{fill:#955c4b;}.cls-228{fill:#9a5d4a;}.cls-229{fill:#965946;}.cls-230{fill:#9d6451;}.cls-231{fill:#381209;}.cls-232{fill:#2e1511;}.cls-233{fill:#170707;}.cls-234{fill:#180808;}.cls-235{fill:#462a1c;}.cls-236{fill:#250e08;}.cls-237{fill:#4a2b19;}.cls-238{fill:#5f4534;}.cls-239{fill:#6e4030;}.cls-240{fill:#744636;}.cls-241{fill:#6f4132;}.cls-242{fill:#6c3f39;}.cls-243{fill:#76483b;}.cls-244{fill:#704735;}.cls-245{fill:#643b35;}.cls-246{fill:#532d24;}.cls-247{fill:#5f2f25;}.cls-248{fill:#743b2a;}.cls-249{fill:#7a3f2f;}.cls-250{fill:#8e5544;}.cls-251{fill:#ae786c;}.cls-252{fill:#a76d62;}.cls-253{fill:#3f1e0f;}.cls-254{fill:#461e12;}.cls-255{fill:#300f06;}.cls-256{fill:#50281e;}.cls-257{fill:#311106;}.cls-258{fill:#371911;}.cls-259{fill:#482018;}.cls-260{fill:#41190f;}.cls-261{fill:#532317;}.cls-262{fill:#7f4537;}.cls-263{fill:#3b1a11;}.cls-264{fill:#321912;}.cls-265{fill:#361a16;}.cls-266{fill:#321511;}.cls-267{fill:#341711;}.cls-268{fill:#2f120e;}.cls-269{fill:#3a150d;}.cls-270{fill:#351613;}.cls-271{fill:#1e0201;}.cls-272{fill:#1f0802;}.cls-273{fill:#1f0707;}.cls-274{fill:#1e100d;}.cls-275{fill:#391811;}.cls-276{fill:#28130e;}.cls-277{fill:#3b1a15;}.cls-278{fill:#3c2724;}.cls-279{fill:#7d6e6b;}.cls-280{fill:#3e302f;}.cls-281{fill:#756663;}.cls-282{fill:#6b5c59;}.cls-283{fill:#291b1b;}.cls-284{fill:#160a0a;}.cls-285{fill:#120606;}.cls-286{fill:#0b0000;}.cls-287{fill:#1a0b08;}.cls-288{fill:#0e0405;}.cls-289{fill:#0c0203;}.cls-290{fill:#6a6061;}.cls-291{fill:#c9bdbf;}.cls-292{fill:#2d1e21;}.cls-293{fill:#1f0703;}.cls-294{fill:#130304;}.cls-295{fill:#180a09;}.cls-296{fill:#110604;}.cls-297{fill:#120403;}.cls-298{fill:#150c0f;}.cls-299{fill:#180c0e;}.cls-300{fill:#150b0c;}.cls-301{fill:#c4bab9;}.cls-302{fill:#4e4242;}.cls-303{fill:#0c0304;}.cls-304{fill:#0f0303;}.cls-305{fill:#150a10;}.cls-306{fill:#100404;}.cls-307{fill:#0f0305;}.cls-308{fill:#220807;}.cls-309{fill:#100408;}.cls-310{fill:#371b17;}.cls-311{fill:#7c6464;}.cls-312{fill:#4c241a;}.cls-313{fill:#6b4f4c;}.cls-314{fill:#5c3933;}.cls-315{fill:#220a08;}.cls-316{fill:#563530;}.cls-317{fill:#35120e;}.cls-318{fill:#875d47;}.cls-319{fill:#744939;}.cls-320{fill:#7d5242;}.cls-321{fill:#9b624e;}.cls-322{fill:#8d6049;}.cls-323{fill:#9f6854;}.cls-324{fill:#885341;}.cls-325{fill:#7d4e3c;}.cls-326{fill:#804b3d;}.cls-327{fill:#6f3b30;}.cls-328{fill:#713d32;}.cls-329{fill:#673b32;}.cls-330{fill:#884e40;}.cls-331{fill:#8d5848;}.cls-332{fill:#834f44;}.cls-333{fill:#905849;}.cls-334{fill:#b67e71;}.cls-335{fill:#a26958;}.cls-336{fill:#935644;}.cls-337{fill:#8e5341;}.cls-338{fill:#945745;}.cls-339{fill:#905b4d;}.cls-340{fill:#895444;}.cls-341{fill:#814739;}.cls-342{fill:#a76e5b;}.cls-343{fill:#935a47;}.cls-344{fill:#efbaac;}.cls-345{fill:#c08975;}.cls-346{fill:#dca398;}.cls-347{fill:#b37a67;}.cls-348{fill:#884938;}.cls-349{fill:#a56856;}.cls-350{fill:#bd867f;}.cls-351{fill:#91554d;}.cls-352{fill:#a76b61;}.cls-353{fill:#a06257;}.cls-354{fill:#985a4f;}.cls-355{fill:#a16452;}.cls-356{fill:#551a0c;}.cls-357{fill:#5b2012;}.cls-358{fill:#c28573;}.cls-359{fill:#a36654;}.cls-360{fill:#af705f;}.cls-361{fill:#975545;}.cls-362{fill:#864b3b;}.cls-363{fill:#7b3d2e;}.cls-364{fill:#ab6e5c;}.cls-365{fill:#763b2b;}.cls-366{fill:#77392a;}.cls-367{fill:#692e1e;}.cls-368{fill:#6a3225;}.cls-369{fill:#5d2518;}.cls-370{fill:#814c3e;}.cls-371{fill:#70382b;}.cls-372{fill:#71392c;}.cls-373{fill:#b87968;}.cls-374{fill:#b17261;}.cls-375{fill:#9e5f4e;}.cls-376{fill:#9f604f;}.cls-377{fill:#a96558;}.cls-378{fill:#a66255;}.cls-379{fill:#9d594c;}.cls-380{fill:#9a5747;}.cls-381{fill:#bb7c6d;}.cls-382{fill:#a26553;}.cls-383{fill:#b06c5f;}.cls-384{fill:#c07c73;}.cls-385{fill:#ac6758;}.cls-386{fill:#bd796c;}.cls-387{fill:#b67363;}.cls-388{fill:#ab6858;}.cls-389{fill:#91594a;}.cls-390{fill:#b57671;}.cls-391{fill:#b27268;}.cls-392{fill:#a6665a;}.cls-393{fill:#9e6051;}.cls-394{fill:#935846;}.cls-395{fill:#a86a5f;}.cls-396{fill:#af6f65;}.cls-397{fill:#ab6b61;}.cls-398{fill:#935b4a;}.cls-399{fill:#8c5443;}.cls-400{fill:#91594c;}.cls-401{fill:#955242;}.cls-402{fill:#a15e4e;}.cls-403{fill:#8b503e;}.cls-404{fill:#8f503f;}.cls-405{fill:#935a49;}.cls-406{fill:#90564a;}.cls-407{fill:#6f3529;}.cls-408{fill:#a26956;}.cls-409{fill:#9d5e4d;}.cls-410{fill:#9e6355;}.cls-411{fill:#b3746f;}.cls-412{fill:#af7b70;}.cls-413{fill:#a16c5e;}.cls-414{fill:#a87061;}.cls-415{fill:#ab7769;}.cls-416{fill:#ad786a;}.cls-417{fill:#771a25;}.cls-418{fill:#a7414f;}.cls-419{fill:#8e262f;}.cls-420{fill:#852129;}.cls-421{fill:#8c242b;}.cls-422{fill:#7f1e25;}.cls-423{fill:#7a2427;}.cls-424{fill:#73342f;}.cls-425{fill:#541810;}.cls-426{fill:#601f1b;}.cls-427{fill:#751b24;}.cls-428{fill:#803434;}.cls-429{fill:#995351;}.cls-430{fill:#95504b;}.cls-431{fill:#99554a;}.cls-432{fill:#8b403a;}.cls-433{fill:#814138;}.cls-434{fill:#6a1319;}.cls-435{fill:#b34a58;}.cls-436{fill:#a23d45;}.cls-437{fill:#9c3d45;}.cls-438{fill:#882d32;}.cls-439{fill:#6a1a1b;}.cls-440{fill:#6e2423;}.cls-441{fill:#5b1e19;}.cls-442{fill:#d2a28e;}.cls-443{fill:#c79890;}.cls-444{fill:#daaea3;}.cls-445{fill:#e0c0b1;}.cls-446{fill:#c49f8d;}.cls-447{fill:#c39888;}.cls-448{fill:#c9a992;}.cls-449{fill:#4e3e2e;}.cls-450{fill:#49372b;}.cls-451{fill:#473f32;}.cls-452{fill:#5d473a;}.cls-453{fill:#7b5f4a;}.cls-454{fill:#464236;}.cls-455{fill:#786254;}.cls-456{fill:#785340;}.cls-457{fill:#5f483a;}.cls-458{fill:#332e28;}.cls-459{fill:#211b1d;}.cls-460{fill:#291d1f;}.cls-461{fill:#3a2524;}.cls-462{fill:#2b2122;}.cls-463{fill:#ba857d;}.cls-464{fill:#d89e92;}.cls-465{fill:#7d4338;}.cls-466{fill:#692e28;}.cls-467{fill:#573533;}.cls-468{fill:#552b2c;}.cls-469{fill:#6b3632;}.cls-470{fill:#551b19;}.cls-471{fill:#593332;}.cls-472{fill:#371514;}.cls-473{fill:#623a38;}.cls-474{fill:#5e352f;}.cls-475{fill:#68403e;}.cls-476{fill:#623a3a;}.cls-477{fill:#805350;}.cls-478{fill:#723f3c;}.cls-479{fill:#865954;}.cls-480{fill:#9d6e66;}.cls-481{fill:#9f7068;}.cls-482{fill:#c79892;}.cls-483{fill:#91645f;}.cls-484{fill:#ae837a;}.cls-485{fill:#82514d;}.cls-486{fill:#bf9a92;}.cls-487{fill:#cb9f96;}.cls-488{fill:#c5998e;}.cls-489{fill:#b98d82;}.cls-490{fill:#c69e94;}.cls-491{fill:#d1a9a1;}.cls-492{fill:#c2978e;}.cls-493{fill:#fcd4ca;}.cls-494{fill:#90655c;}.cls-495{fill:#794a40;}.cls-496{fill:#6f4134;}.cls-497{fill:#83584f;}.cls-498{fill:#655244;}.cls-499{fill:#b39289;}.cls-500{fill:#4e382b;}.cls-501{fill:#513e30;}.cls-502{fill:#462f27;}.cls-503{fill:#402921;}.cls-504{fill:#261c1b;}.cls-505{fill:#484347;}.cls-506{fill:#201c1d;}.cls-507{fill:#302722;}.cls-508{fill:#0a0607;}.cls-509{fill:#181319;}.cls-510{fill:#0b040b;}.cls-511{fill:#222126;}.cls-512{fill:#181317;}.cls-513{fill:#070208;}.cls-514{fill:#120d11;}.cls-515{fill:#30302e;}.cls-516{fill:#090504;}.cls-517{fill:#372e27;}.cls-518{fill:#504e3f;}.cls-519{fill:#443b32;}.cls-520{fill:#503d2c;}.cls-521{fill:#372a1a;}.cls-522{fill:#4c392a;}.cls-523{fill:#362416;}.cls-524{fill:#291709;}.cls-525{fill:#2d1a09;}.cls-526{fill:#38210f;}.cls-527{fill:#351f08;}.cls-528{fill:#331908;}.cls-529{fill:#a27d63;}.cls-530{fill:#96725c;}.cls-531{fill:#c7a389;}.cls-532{fill:#d0a38c;}.cls-533{fill:#c39a7e;}.cls-534{fill:#c49579;}.cls-535{fill:#d1a18a;}.cls-536{fill:#ca9b7f;}.cls-537{fill:#784f3d;}.cls-538{fill:#b17b61;}.cls-539{fill:#b27966;}.cls-540{fill:#b47765;}.cls-541{fill:#ac7767;}.cls-542{fill:#a66e57;}.cls-543{fill:#aa7762;}.cls-544{fill:#93664f;}.cls-545{fill:#6f4934;}</style></defs><path d="M87.88,182.39H85.34c-.25,0-.49-.08-.74-.09-1.95-.09-3.89-.17-5.83-.28a2,2,0,0,1-.77-.2L67,176.2a4.7,4.7,0,0,1-.85-.54l-9.69-7.72a5.32,5.32,0,0,1-.77-.73q-3.37-4-6.73-8.06a3.76,3.76,0,0,1-.44-.68q-2.84-5.66-5.64-11.3a2.68,2.68,0,0,1-.24-.67c-.37-1.65-.72-3.3-1.09-4.95-.12-.54-.27-1.08-.4-1.61a3.27,3.27,0,0,0,0-.45L39.72,133l-.3-1.38L35.7,131c-.2.85-.39,1.65-.57,2.46a.7.7,0,0,0,0,.25c.32,1.62.64,3.25,1,4.87a1,1,0,0,0,.29.45c.55.47,1.14.9,1.7,1.36a.58.58,0,0,0,.56.14l2.51-.61c-.75.56-1.49,1.12-2.24,1.66a.59.59,0,0,1-.47,0c-.51-.14-1-.32-1.5-.47a.84.84,0,0,1-.51-.45c-.65-1.22-1.32-2.44-2-3.67a2.17,2.17,0,0,1-.2-.67c-.12-.73-.19-1.47-.32-2.21a4.16,4.16,0,0,1,.13-2c.15-.45.23-.92.37-1.37a.79.79,0,0,0-.15-.79c-.94-1.26-1.85-2.54-2.77-3.82a1.13,1.13,0,0,1-.26-.43,12.75,12.75,0,0,1-.45-2.54,31,31,0,0,0-.21-4.81,20.57,20.57,0,0,1-.25-3.33c0-2,0-4,0-6a1.15,1.15,0,0,0-.28-.83c-1-1.17-1.93-2.35-2.9-3.53a4,4,0,0,0-.36-.35V99a2.2,2.2,0,0,0,.37-.3c.67-.83,1.33-1.66,2-2.51a.49.49,0,0,1,.6-.21c.44.13.89.23,1.33.33l1.18.28c0-.2,0-.35,0-.5-.12-1.09-.24-2.18-.35-3.28-.22-2.1-.43-4.2-.65-6.3s-.45-4.34-.69-6.51a18.51,18.51,0,0,0-.42-3c-.21-.77-.38-1.55-.59-2.31a1.9,1.9,0,0,1,0-1.18c2.45-7.2,4.95-14.39,7.16-21.67a1.36,1.36,0,0,1,.4-.63c1.56-1.47,3.1-3,4.7-4.41a13.76,13.76,0,0,0,2.91-3.54,2,2,0,0,1,.67-.67c2.29-1.48,4.57-3,6.86-4.44a.88.88,0,0,0,.46-.86c0-2,0-4.09,0-6.14a1.3,1.3,0,0,1,.28-.83c1-1.24,1.88-2.49,2.81-3.73q3.54-4.71,7.06-9.43a1,1,0,0,1,.84-.46c.32,0,.64-.08.95-.12l10.81-1.49c3.72-.51,7.44-1,11.15-1.53a1.14,1.14,0,0,1,.89.24q5.4,4,10.83,8.06a1.78,1.78,0,0,1,.56.69q2.79,5.84,5.6,11.66c.93,1.92,1.8,3.87,2.8,5.75q7.37,13.69,14.79,27.36a3.93,3.93,0,0,1,.37.93c.8,3.08,1.58,6.16,2.37,9.24.08.32.18.63.27,1v.71c-.06.28-.12.55-.16.83a12.27,12.27,0,0,0-.23,1.81c0,3,0,6.09,0,9.13q0,.33,0,.66c.09,1.16.18,2.32.28,3.48a4.68,4.68,0,0,0,.09.54v.82l-.09,0-2.73,2.44a1.52,1.52,0,0,0-.29.41q-.57,1.09-1.11,2.22a1.36,1.36,0,0,0-.12.63c0,.39.08.77.13,1.16a17.43,17.43,0,0,1,.09,4.39,34.22,34.22,0,0,0-.23,3.65c0,2,.1,4,.14,6,0,1.13.07,2.27,0,3.4-.12,2.11-.3,4.22-.48,6.32a14.82,14.82,0,0,1-.28,2.41c-.69,2.93-1.43,5.85-2.17,8.76a25.8,25.8,0,0,1-.8,2.93c-2,5.29-4,10.57-6,15.84-.08.19-.16.38-.25.56-3.32,6.4-6.81,12.69-10.37,18.95a1.83,1.83,0,0,1-.45.54c-1.51,1.28-3,2.54-4.55,3.82a1.35,1.35,0,0,1-.72.32c-1.86.27-3.71.55-5.57.84C88.83,182.19,88.36,182.3,87.88,182.39Z"/><path class="cls-1" d="M87.88,185.88H85.34a3.11,3.11,0,0,1-.43,0l-.31,0-.19,0-2.13-.09-3.7-.18a5.47,5.47,0,0,1-2.17-.58l-11-5.62a8.51,8.51,0,0,1-1.43-.92c-3.16-2.5-6.42-5.1-9.7-7.72A8.59,8.59,0,0,1,53,169.46c-2-2.41-4.23-5.05-6.74-8.08a6.82,6.82,0,0,1-.88-1.35l-5.65-11.31a6.67,6.67,0,0,1-.52-1.46c-.15-.71-.31-1.42-.46-2.13a4.34,4.34,0,0,1-1.28-.17c-.35-.1-.67-.21-.95-.3l-.59-.19a4.28,4.28,0,0,1-2.59-2.15l-.91-1.7-1.06-2a5.66,5.66,0,0,1-.57-1.77c-.06-.34-.1-.69-.14-1s-.1-.76-.16-1.1a7.63,7.63,0,0,1,.24-3.74l-1.61-2.22-.47-.65a4.3,4.3,0,0,1-.83-1.77c0-.19-.09-.38-.13-.57a10.29,10.29,0,0,1-.39-2.68v-.28a25.69,25.69,0,0,0-.17-4,23.38,23.38,0,0,1-.29-3.9c0-1.18,0-2.39,0-3.56v-1.61l-1.37-1.68L24.6,107l-.19-.18a3.47,3.47,0,0,1-1.05-2.49V99a3.47,3.47,0,0,1,1.34-2.75l0,0c.66-.83,1.21-1.52,1.7-2.16a4.18,4.18,0,0,1,2-1.41c-.08-.83-.17-1.66-.25-2.49-.12-1.1-.23-2.2-.34-3.29l-.14-1.29c-.18-1.71-.36-3.47-.55-5.2,0-.24-.05-.49-.07-.73A10.59,10.59,0,0,0,26.81,78c-.11-.42-.21-.83-.31-1.22s-.18-.74-.27-1.07a5.39,5.39,0,0,1,.1-3.25c.37-1.11.75-2.21,1.13-3.32,2-6,4.13-12.13,6-18.24a4.78,4.78,0,0,1,1.35-2.16l1.54-1.47c1-1,2.11-2,3.21-3a9.88,9.88,0,0,0,2.19-2.62,5.19,5.19,0,0,1,1.84-1.92L46.19,38l3.1-2V33.94c0-.9,0-1.8,0-2.71a4.69,4.69,0,0,1,1-3c.72-.94,1.44-1.9,2.14-2.84l2.07-2.76c1.85-2.47,3.76-5,5.63-7.52a4.52,4.52,0,0,1,3.47-1.87l.35,0,.3,0,4.29-.59,6.51-.9,3.57-.48,7.58-1a4.57,4.57,0,0,1,3.46.89c3.23,2.42,6.67,5,10.82,8.06a5.32,5.32,0,0,1,1.63,2c1.82,3.81,3.7,7.73,5.6,11.66.26.55.53,1.11.79,1.67.65,1.37,1.26,2.67,1.94,3.93,3.27,6.08,6.61,12.26,9.85,18.24,1.64,3,3.29,6.07,4.93,9.12a7.42,7.42,0,0,1,.68,1.72q.83,3.15,1.62,6.32l.75,2.92.15.54c0,.11.07.22.1.33a3.82,3.82,0,0,1,.13,1v.71a3.23,3.23,0,0,1-.07.69l-.06.3c0,.13-.06.26-.07.34l-.09.56a6.25,6.25,0,0,0-.1.77c0,2.36,0,4.75,0,7.08v2c0,.1,0,.22,0,.39l.27,3.39v0c0,.09,0,.17.05.25a4,4,0,0,1,0,.6v.82a3.49,3.49,0,0,1-1.6,2.93h0L125,101.25c-.21.4-.43.84-.64,1.27l0,.26,0,.09a21.11,21.11,0,0,1,.1,5.26,32.7,32.7,0,0,0-.21,3.27c0,1.2,0,2.4.07,3.68,0,.76,0,1.52.07,2.28v.55c0,1,0,2,0,3.12-.11,1.84-.26,3.69-.41,5.47l-.08.94,0,.45a16.33,16.33,0,0,1-.33,2.48c-.6,2.53-1.24,5.08-1.86,7.55l-.32,1.26c-.06.21-.11.42-.16.64a20.51,20.51,0,0,1-.76,2.65c-1.54,4.11-3.12,8.28-4.65,12.31l-1.35,3.55a8.13,8.13,0,0,1-.41.92c-2.92,5.65-6.14,11.53-10.44,19.08a5.31,5.31,0,0,1-1.23,1.48c-.82.7-1.65,1.39-2.48,2.08l-2.07,1.74a5,5,0,0,1-2.47,1.11c-2,.29-4,.59-5.53.83l-.83.15-.49.1A3.49,3.49,0,0,1,87.88,185.88Zm-2.3-7h2l.11,0c.35-.07.72-.15,1.13-.21l5-.76,1.65-1.38,2.24-1.88c4.19-7.36,7.33-13.1,10.18-18.61l.08-.18,1.35-3.56c1.53-4,3.11-8.18,4.64-12.27a16,16,0,0,0,.51-1.84l.18-.72.32-1.26c.61-2.44,1.25-5,1.83-7.45a8,8,0,0,0,.16-1.38c0-.17,0-.34,0-.52l.08-.94c.15-1.74.3-3.54.4-5.29,0-.8,0-1.66,0-2.56v-.57l-.06-2.2c0-1.27-.08-2.59-.08-3.9a39,39,0,0,1,.25-4,13.54,13.54,0,0,0-.08-3.53v-.08c-.06-.42-.12-.9-.15-1.44a4.81,4.81,0,0,1,.46-2.25c.38-.82.79-1.62,1.15-2.32a4.84,4.84,0,0,1,1.06-1.4l1.55-1.4-.24-3.06c0-.34,0-.64,0-.92V89c0-2.33,0-4.75,0-7.13a12.89,12.89,0,0,1,.19-1.86c0-.14.05-.27.07-.41s.07-.43.11-.61-.1-.35-.14-.53l-.75-2.92c-.54-2.11-1.07-4.21-1.62-6.31a.43.43,0,0,0-.06-.15l-4.93-9.11c-3.24-6-6.58-12.16-9.86-18.25-.77-1.42-1.45-2.87-2.1-4.26-.26-.54-.51-1.09-.77-1.62C99.57,32,97.74,28.17,96,24.48c-3.7-2.74-6.83-5.08-9.76-7.27l-6.67.91L76,18.61l-6.51.9-4.29.58h-.06l-5.06,6.75L58,29.61l-1.75,2.31c0,.68,0,1.35,0,2,0,1.11,0,2.26,0,3.38a4.36,4.36,0,0,1-2.07,3.83c-1.41.9-2.83,1.83-4.22,2.73l-2.37,1.54a17.36,17.36,0,0,1-3.4,4c-1,.92-2,1.86-3.06,2.86L40,53.45c-1.84,6-3.9,12.09-5.9,17.93-.33,1-.65,1.94-1,2.9l.21.84c.08.35.16.69.25,1A16.84,16.84,0,0,1,34,79l.06.62c.19,1.75.38,3.53.56,5.25l.13,1.28c.11,1.1.23,2.2.34,3.3s.21,2,.31,3c.06.6.13,1.19.19,1.78s.11,1,.16,1.5a5.08,5.08,0,0,1,0,.51v.15a3.48,3.48,0,0,1-4.27,3.6l-.37-.09-.36-.08-.46.57V103l.59.73c.61.74,1.24,1.51,1.86,2.25a4.69,4.69,0,0,1,1.1,3.08c0,.79,0,1.58,0,2.36,0,1.2,0,2.43,0,3.66a17.35,17.35,0,0,0,.21,2.77,31.58,31.58,0,0,1,.25,5.07v.28a6.1,6.1,0,0,0,.19,1c0,.06,0,.12,0,.18l.28.38c.7,1,1.43,2,2.15,3l3,.5a3.49,3.49,0,0,1,2.82,2.68l.1.43c.07.32.15.64.22,1q.7,3.25,1.4,6.5a3.58,3.58,0,0,1,.09.65l0,.15c.11.4.21.8.31,1.24.19.83.37,1.66.55,2.49s.35,1.6.52,2.4l5.61,11.22v0l6.72,8a1.83,1.83,0,0,0,.27.25l9.68,7.7a1.34,1.34,0,0,0,.28.18c3.95,2,7.44,3.81,10.66,5.45l3.32.16,2.16.1C85.09,178.83,85.37,178.87,85.58,178.9Zm39-85.86Z"/><polygon class="cls-2" points="83.65 152.43 78.3 153.59 86.92 153.61 83.65 152.43"/><polygon class="cls-3" points="78.3 153.59 71.54 154.06 74.34 155.45 78.3 153.59"/><polygon class="cls-4" points="74.34 155.45 84.12 156.85 78.3 153.59 74.34 155.45"/><polygon class="cls-5" points="78.3 153.59 84.12 156.85 86.92 156.85 78.3 153.59"/><polygon class="cls-6" points="84.12 156.85 86.92 157.95 86.92 156.85 84.12 156.85"/><polygon class="cls-7" points="79.96 156.26 86.92 157.95 84.12 156.85 79.96 156.26"/><polygon class="cls-8" points="71.54 154.06 74.34 155.45 71.77 155.69 71.54 154.06"/><polygon class="cls-9" points="72.41 155.63 78.53 162.68 83.65 162.21 72.41 155.63"/><polygon class="cls-10" points="72.41 155.63 74.34 155.45 83.65 162.21 72.41 155.63"/><polygon class="cls-11" points="78.53 162.68 82.49 165.24 83.65 162.21 78.53 162.68"/><polygon class="cls-12" points="82.49 165.24 86.92 165.84 86.92 161.28 82.49 165.24"/><polygon class="cls-13" points="82.49 165.24 83.65 162.21 86.92 161.28 82.49 165.24"/><polygon class="cls-14" points="74.34 155.45 79.96 156.26 81.79 157.78 74.34 155.45"/><polygon class="cls-15" points="74.34 155.45 83.65 162.21 81.79 157.78 74.34 155.45"/><polygon class="cls-16" points="81.79 157.78 79.96 156.26 86.92 157.95 81.79 157.78"/><polygon class="cls-17" points="81.79 157.78 86.92 161.28 83.65 162.21 81.79 157.78"/><polygon class="cls-18" points="81.79 157.78 86.92 157.95 86.92 161.28 81.79 157.78"/><polygon class="cls-19" points="71.77 155.69 67.02 152.43 71.54 154.06 71.77 155.69"/><polygon class="cls-20" points="78.3 153.59 86.92 153.61 86.92 156.85 78.3 153.59"/><polygon class="cls-21" points="86.92 153.61 86.92 145.32 84.12 151.86 86.92 153.61"/><polygon class="cls-22" points="86.92 153.61 84.12 151.86 83.65 152.43 86.92 153.61"/><polygon class="cls-23" points="86.92 145.32 84.12 151.86 85.05 145.67 86.92 145.32"/><polygon class="cls-24" points="86.92 145.32 85.05 145.67 84.12 144.32 86.92 145.32"/><polygon class="cls-25" points="86.92 145.32 87.15 144.04 84.35 142.78 86.92 145.32"/><polygon class="cls-26" points="86.92 145.32 84.12 144.32 84.35 142.78 86.92 145.32"/><polygon class="cls-27" points="84.35 142.78 80.39 140.08 84.12 144.32 84.35 142.78"/><polygon class="cls-28" points="80.39 140.08 76.9 140.54 81.64 141.5 80.39 140.08"/><polygon class="cls-29" points="84.12 144.32 76.9 140.54 81.64 141.5 84.12 144.32"/><polygon class="cls-30" points="81.79 143.1 76.55 142.2 76.9 140.54 81.79 143.1"/><polygon class="cls-31" points="76.55 142.2 73.4 138.91 76.9 140.54 76.55 142.2"/><polygon class="cls-32" points="76.9 140.54 80.39 140.08 73.4 138.91 76.9 140.54"/><polygon class="cls-33" points="87.15 144.04 87.15 140.08 84.35 142.78 87.15 144.04"/><polygon class="cls-34" points="87.15 140.08 80.39 140.08 84.35 142.78 87.15 140.08"/><polygon class="cls-35" points="73.4 138.91 73.64 134.72 80.39 140.08 73.4 138.91"/><polygon class="cls-36" points="73.64 134.72 78.76 131 80.51 137.4 73.64 134.72"/><polygon class="cls-37" points="73.64 134.72 80.51 137.4 80.39 140.08 73.64 134.72"/><polygon class="cls-38" points="80.39 140.08 87.15 140.08 87.15 137.75 80.39 140.08"/><polygon class="cls-39" points="80.39 140.08 80.51 137.4 87.15 137.75 80.39 140.08"/><polygon class="cls-40" points="80.51 137.4 78.76 131 82.37 126.85 80.51 137.4"/><polygon class="cls-41" points="80.51 137.4 82.37 126.85 87.15 137.75 80.51 137.4"/><polygon class="cls-42" points="82.37 126.85 87.15 122.51 87.15 137.75 82.37 126.85"/><polygon class="cls-43" points="82.37 126.85 83.19 115.39 87.15 122.51 82.37 126.85"/><polygon class="cls-44" points="87.15 122.51 87.15 109.8 83.19 115.39 87.15 122.51"/><polygon class="cls-45" points="82.37 126.85 78.3 124.94 83.19 115.39 82.37 126.85"/><polygon class="cls-46" points="82.37 126.85 78.76 131 72.94 132.84 82.37 126.85"/><polygon class="cls-47" points="82.37 126.85 78.3 124.94 72.94 132.84 82.37 126.85"/><polygon class="cls-48" points="78.76 131 73.64 134.72 72.94 132.84 78.76 131"/><polygon class="cls-49" points="85.05 145.67 84.12 151.86 84.12 144.32 85.05 145.67"/><polygon class="cls-50" points="83.65 152.43 84.12 151.86 84.12 144.32 83.65 152.43"/><polygon class="cls-51" points="84.12 144.32 83.65 152.43 78.3 153.59 84.12 144.32"/><polygon class="cls-52" points="84.12 144.32 81.79 143.1 78.3 153.59 84.12 144.32"/><polygon class="cls-53" points="81.79 143.1 76.55 142.2 71.54 154.06 81.79 143.1"/><polygon class="cls-54" points="78.3 153.59 71.54 154.06 81.79 143.1 78.3 153.59"/><polygon class="cls-55" points="76.55 142.2 71.54 154.06 67.02 152.43 76.55 142.2"/><polygon class="cls-56" points="76.55 142.2 75.71 143.1 73.4 138.91 76.55 142.2"/><polygon class="cls-57" points="73.4 138.91 72.41 138.53 73.64 134.72 73.4 138.91"/><polygon class="cls-58" points="75.71 143.1 67.96 151.41 65.02 151.03 75.71 143.1"/><polygon class="cls-59" points="67.96 151.41 67.02 152.43 65.02 151.03 67.96 151.41"/><polygon class="cls-60" points="75.71 143.1 72.41 138.53 73.4 138.91 75.71 143.1"/><polygon class="cls-61" points="75.71 143.1 65.02 151.03 72.41 138.53 75.71 143.1"/><polygon class="cls-62" points="73.64 134.72 63.87 145.67 72.94 132.84 73.64 134.72"/><polygon class="cls-63" points="73.64 134.72 72.41 138.53 63.87 145.67 73.64 134.72"/><polygon class="cls-64" points="72.41 138.53 65.02 151.03 63.87 145.67 72.41 138.53"/><polygon class="cls-65" points="63.87 145.67 60.13 150.79 63.02 148.58 63.87 145.67"/><polygon class="cls-66" points="63.87 145.67 65.02 151.03 63.02 148.58 63.87 145.67"/><polygon class="cls-67" points="63.02 148.58 60.13 150.79 62.32 154.87 63.02 148.58"/><polygon class="cls-68" points="62.32 154.87 65.02 151.03 63.02 148.58 62.32 154.87"/><polygon class="cls-69" points="65.02 151.03 67.02 152.43 63.37 153.38 65.02 151.03"/><polygon class="cls-70" points="63.37 153.38 62.32 154.87 71.77 155.69 63.37 153.38"/><polygon class="cls-71" points="71.77 155.69 67.02 152.43 67.05 154.39 71.77 155.69"/><polygon class="cls-72" points="67.05 154.39 63.37 153.38 67.02 152.43 67.05 154.39"/><polygon class="cls-73" points="72.41 155.63 71.77 155.69 78.53 162.68 72.41 155.63"/><polygon class="cls-74" points="71.77 155.69 79 171.06 78.3 182.01 71.77 155.69"/><polygon class="cls-75" points="78.53 162.68 79 171.06 73.58 159.53 78.53 162.68"/><polygon class="cls-76" points="78.53 162.68 71.77 155.69 73.58 159.53 78.53 162.68"/><polygon class="cls-77" points="78.53 162.68 82.49 165.24 82.02 176.42 78.53 162.68"/><polygon class="cls-78" points="78.53 162.68 82.02 176.42 78.3 182.01 78.53 162.68"/><polygon class="cls-79" points="82.49 165.24 82.02 176.42 86.92 182.41 82.49 165.24"/><polygon class="cls-80" points="82.02 176.42 78.3 182.01 86.92 182.41 82.02 176.42"/><polygon class="cls-81" points="82.49 165.24 86.92 165.84 84.9 174.58 82.49 165.24"/><polygon class="cls-82" points="86.92 165.84 86.92 182.41 84.9 174.58 86.92 165.84"/><polygon class="cls-83" points="78.3 182.01 66.49 175.97 71.77 155.69 78.3 182.01"/><polygon class="cls-84" points="66.49 175.97 55.93 167.57 71.77 155.69 66.49 175.97"/><polygon class="cls-85" points="55.93 167.57 48.65 158.83 62.32 154.87 55.93 167.57"/><polygon class="cls-86" points="71.77 155.69 55.93 167.57 62.32 154.87 71.77 155.69"/><polygon class="cls-87" points="62.32 154.87 60.13 150.79 48.65 158.83 62.32 154.87"/><polygon class="cls-25" points="87.08 144.04 86.92 145.32 87.15 145.5 87.31 145.32 87.08 144.04"/><polygon class="cls-88" points="86.92 153.61 87.15 153.82 87.31 153.61 86.92 145.32 86.92 153.61"/><polygon class="cls-88" points="87.15 145.5 86.92 145.32 87.31 153.61 87.15 145.5"/><polygon class="cls-88" points="87.31 145.32 87.15 145.5 87.31 153.61 87.31 145.32"/><polygon class="cls-20" points="86.92 153.61 87.15 153.82 86.92 156.85 86.92 153.61"/><polygon class="cls-20" points="87.31 156.85 86.92 156.85 87.15 153.82 87.31 156.85"/><polygon class="cls-20" points="87.31 153.61 87.15 153.82 87.31 156.85 87.31 153.61"/><polygon class="cls-12" points="87.31 165.84 86.92 165.84 86.92 161.28 87.31 165.84"/><polygon class="cls-12" points="87.31 161.28 86.92 161.28 87.31 165.84 87.31 161.28"/><polygon class="cls-18" points="87.31 157.95 87.31 161.28 86.92 157.95 87.31 157.95"/><polygon class="cls-18" points="86.92 161.28 86.92 157.95 87.31 161.28 86.92 161.28"/><polygon class="cls-6" points="87.31 157.95 86.92 157.95 87.31 156.85 87.31 157.95"/><polygon class="cls-6" points="86.92 156.85 86.92 157.95 87.31 156.85 86.92 156.85"/><polygon class="cls-82" points="86.92 182.41 87.31 182.41 86.92 165.84 86.92 182.41"/><polygon class="cls-82" points="87.31 182.41 87.31 165.84 86.92 165.84 87.31 182.41"/><polygon class="cls-89" points="48.65 158.83 42.66 146.84 60.13 150.79 48.65 158.83"/><polygon class="cls-90" points="60.13 150.79 63.87 145.67 53.34 137.75 60.13 150.79"/><polygon class="cls-91" points="42.66 146.84 39.46 132.13 60.13 150.79 42.66 146.84"/><polygon class="cls-92" points="60.13 150.79 53.34 137.75 39.46 132.13 60.13 150.79"/><polygon class="cls-93" points="63.87 145.67 64.02 131 59.26 142.2 63.87 145.67"/><polygon class="cls-94" points="39.46 132.13 40.56 117.25 53.34 137.75 39.46 132.13"/><polygon class="cls-95" points="39.46 132.13 37.53 107 40.56 117.25 39.46 132.13"/><polygon class="cls-96" points="63.87 145.67 72.94 132.84 64.02 131 63.87 145.67"/><polygon class="cls-97" points="72.94 132.84 78.3 124.94 68.75 131.97 72.94 132.84"/><polygon class="cls-98" points="68.75 131.97 74.06 115.39 68.75 119.56 68.75 131.97"/><polygon class="cls-99" points="68.75 131.97 78.3 124.94 83.19 115.39 68.75 131.97"/><polygon class="cls-100" points="68.75 131.97 83.19 115.39 80.39 107.43 68.75 131.97"/><polygon class="cls-101" points="68.75 131.97 74.06 115.39 77.43 113.69 68.75 131.97"/><polygon class="cls-102" points="59.26 142.2 53.34 137.75 46.95 127.5 59.26 142.2"/><polygon class="cls-103" points="59.26 142.2 46.95 127.5 60.73 138.74 59.26 142.2"/><polygon class="cls-104" points="60.73 138.74 64.09 131 60.13 127.5 60.73 138.74"/><polygon class="cls-105" points="64.09 131 68.75 119.56 68.75 131.97 64.09 131"/><polygon class="cls-106" points="60.73 138.74 46.95 127.5 40.56 117.25 60.73 138.74"/><polygon class="cls-107" points="60.73 138.74 60.13 127.5 40.56 117.25 60.73 138.74"/><polygon class="cls-108" points="64.09 131 68.75 119.56 60.13 127.5 64.09 131"/><polygon class="cls-109" points="60.13 127.5 68.75 119.56 43.59 111.43 60.13 127.5"/><polygon class="cls-40" points="60.13 127.5 43.59 111.43 40.56 117.25 60.13 127.5"/><polygon class="cls-110" points="40.56 117.25 37.53 107 43.59 111.43 40.56 117.25"/><polygon class="cls-111" points="68.75 119.56 74.06 115.39 73.64 114.12 68.75 119.56"/><polygon class="cls-112" points="68.75 119.56 73.64 114.12 62.11 117.42 68.75 119.56"/><polygon class="cls-113" points="73.64 114.12 68.75 114.12 62.11 117.42 73.64 114.12"/><polygon class="cls-114" points="43.59 111.43 44.98 103.04 37.53 107 43.59 111.43"/><polygon class="cls-115" points="43.59 111.43 50.34 109.8 44.98 103.04 43.59 111.43"/><polygon class="cls-116" points="50.34 109.8 62.11 117.42 43.59 111.43 50.34 109.8"/><polygon class="cls-117" points="62.11 117.42 68.75 114.12 62.47 114.12 62.11 117.42"/><polygon class="cls-118" points="62.47 114.12 55.82 113.34 62.11 117.42 62.47 114.12"/><polygon class="cls-119" points="74.06 115.39 77.43 113.69 73.64 114.12 74.06 115.39"/><polygon class="cls-120" points="55.82 113.34 53.89 109.8 62.47 114.12 55.82 113.34"/><polygon class="cls-121" points="55.82 113.34 50.34 109.8 53.89 109.8 55.82 113.34"/><polygon class="cls-122" points="77.43 113.69 73.09 107 80.39 107.43 77.43 113.69"/><polygon class="cls-123" points="77.43 113.69 73.64 114.12 75.3 113.34 77.43 113.69"/><polygon class="cls-119" points="77.43 113.69 73.09 110.34 75.3 113.34 77.43 113.69"/><polygon class="cls-124" points="77.43 113.69 73.09 107 75.26 111.3 77.43 113.69"/><polygon class="cls-125" points="77.43 113.69 75.26 111.3 73.09 110.34 77.43 113.69"/><polygon class="cls-126" points="80.39 107.47 78.3 100.25 78.3 105.39 80.39 107.47"/><polygon class="cls-127" points="78.3 105.39 68.75 100.5 78.3 100.25 78.3 105.39"/><polygon class="cls-128" points="78.3 100.25 68.51 95.59 68.75 100.5 78.3 100.25"/><polygon class="cls-129" points="68.75 100.5 58.5 99.08 68.51 95.59 68.75 100.5"/><polygon class="cls-130" points="68.51 95.59 57.1 92.79 58.5 99.08 68.51 95.59"/><polygon class="cls-131" points="58.5 99.08 48.84 100.5 57.1 92.79 58.5 99.08"/><polygon class="cls-132" points="48.84 100.5 44.98 99.95 57.1 92.79 48.84 100.5"/><polygon class="cls-133" points="44.98 103.04 48.84 100.5 44.98 99.95 44.98 103.04"/><polygon class="cls-134" points="44.98 103.04 37.53 93.61 37.53 107 44.98 103.04"/><polygon class="cls-135" points="44.98 103.04 44.98 99.95 37.53 93.61 44.98 103.04"/><polygon class="cls-136" points="53.89 109.8 56.17 109.8 60.4 107 53.89 109.8"/><polygon class="cls-137" points="53.89 109.8 54.3 108.63 60.4 107 53.89 109.8"/><polygon class="cls-138" points="54.3 108.63 60.73 105.92 60.4 107 54.3 108.63"/><polygon class="cls-139" points="60.73 105.92 63.43 105.39 66.88 106.53 60.73 105.92"/><polygon class="cls-140" points="60.73 105.92 60.4 107 66.88 106.53 60.73 105.92"/><polygon class="cls-141" points="66.88 106.53 70.84 108.17 73.09 110.34 66.88 106.53"/><polygon class="cls-142" points="75.3 113.34 73.09 110.34 74.2 112.78 75.3 113.34"/><polygon class="cls-143" points="75.3 113.34 73.64 114.12 74.2 112.78 75.3 113.34"/><polygon class="cls-144" points="73.64 114.12 72.71 113.06 73.96 113.34 73.64 114.12"/><polygon class="cls-145" points="73.64 114.12 72.71 113.06 68.75 114.12 73.64 114.12"/><polygon class="cls-146" points="73.96 113.34 74.2 112.78 73.09 110.34 73.96 113.34"/><polygon class="cls-147" points="73.96 113.34 72.71 113.06 73.64 112.23 73.96 113.34"/><polygon class="cls-148" points="68.75 114.12 66.88 112.79 72.71 113.06 68.75 114.12"/><polygon class="cls-149" points="68.75 114.12 62.47 114.12 60.13 112.94 68.75 114.12"/><polygon class="cls-150" points="68.75 114.12 66.88 112.79 60.13 112.94 68.75 114.12"/><polygon class="cls-151" points="53.89 109.8 60.13 112.94 56.17 109.8 53.89 109.8"/><polygon class="cls-152" points="56.17 109.8 62.95 112.88 60.13 112.94 56.17 109.8"/><polygon class="cls-153" points="72.71 113.06 73.09 110.34 73.64 112.23 72.71 113.06"/><polygon class="cls-154" points="72.71 113.06 70.4 112.95 71.86 111.37 72.71 113.06"/><polygon class="cls-155" points="72.71 113.06 73.09 110.34 71.86 111.37 72.71 113.06"/><polygon class="cls-156" points="73.09 110.34 69.44 108.11 71.86 111.37 73.09 110.34"/><polygon class="cls-157" points="71.86 111.37 69.44 108.11 70.4 112.95 71.86 111.37"/><polygon class="cls-158" points="70.4 112.95 66.88 112.79 68.51 110.53 70.4 112.95"/><polygon class="cls-159" points="70.4 112.95 69.44 108.11 68.51 110.53 70.4 112.95"/><polygon class="cls-160" points="68.51 110.53 68.35 107.43 69.44 108.11 68.51 110.53"/><polygon class="cls-161" points="66.88 112.79 68.51 110.53 68.35 107.43 66.88 112.79"/><polygon class="cls-162" points="66.88 112.79 62.95 112.88 64.67 110.53 66.88 112.79"/><polygon class="cls-163" points="66.88 112.79 64.67 110.53 68.35 107.43 66.88 112.79"/><polygon class="cls-164" points="64.67 110.53 64.67 108.98 67.15 108.44 64.67 110.53"/><polygon class="cls-165" points="68.35 107.43 66.88 106.53 67.15 108.44 68.35 107.43"/><polygon class="cls-166" points="66.88 106.53 67.15 108.44 65.43 108.81 66.88 106.53"/><polygon class="cls-167" points="65.43 108.81 63.99 107.28 66.51 107.12 65.43 108.81"/><polygon class="cls-168" points="65.43 108.81 64.67 108.98 63.99 107.28 65.43 108.81"/><polygon class="cls-169" points="66.88 106.53 66.51 107.12 63.99 107.28 66.88 106.53"/><polygon class="cls-170" points="66.88 106.53 60.4 107 63.99 107.28 66.88 106.53"/><polygon class="cls-171" points="62.95 112.88 60.73 110.53 64.67 110.53 62.95 112.88"/><polygon class="cls-172" points="60.73 110.53 60.73 107.67 63.64 110.53 60.73 110.53"/><polygon class="cls-173" points="63.64 110.53 64.67 110.53 64.67 108.98 63.64 110.53"/><polygon class="cls-174" points="64.67 108.98 62.95 108.13 63.64 110.53 64.67 108.98"/><polygon class="cls-175" points="64.67 108.98 63.99 107.28 62.95 108.13 64.67 108.98"/><polygon class="cls-176" points="63.64 110.53 60.73 107.67 62.95 108.13 63.64 110.53"/><polygon class="cls-177" points="63.99 107.28 62.95 108.13 60.73 107.67 63.99 107.28"/><polygon class="cls-178" points="63.99 107.28 60.4 107 60.73 107.67 63.99 107.28"/><polygon class="cls-179" points="60.4 107 60.73 107.67 56.17 109.8 60.4 107"/><polygon class="cls-180" points="60.73 110.53 60.73 107.67 56.17 109.8 60.73 110.53"/><polygon class="cls-181" points="62.95 112.88 60.73 110.53 56.17 109.8 62.95 112.88"/><polygon class="cls-182" points="75.26 111.3 73.09 107 71.86 106.91 75.26 111.3"/><polygon class="cls-183" points="75.26 111.3 71.86 106.91 70.84 108.17 75.26 111.3"/><polygon class="cls-184" points="75.26 111.3 73.09 110.34 70.84 108.17 75.26 111.3"/><polygon class="cls-185" points="73.09 107 78.3 105.39 80.39 107.47 73.09 107"/><polygon class="cls-186" points="73.09 107 68.75 100.5 78.3 105.39 73.09 107"/><polygon class="cls-187" points="73.09 107 71.86 106.91 68.75 100.5 73.09 107"/><polygon class="cls-188" points="71.86 106.91 67.87 104.28 71.27 107.64 71.86 106.91"/><path class="cls-189" d="M70.15,106.54l-4.24-1.78,2-.48Z"/><polygon class="cls-190" points="67.87 104.28 61.79 103.75 65.91 104.76 67.87 104.28"/><polygon class="cls-191" points="64.16 104.33 58.18 104.95 61.79 103.75 64.16 104.33"/><polygon class="cls-192" points="61.79 103.75 57.52 104.26 58.18 104.95 61.79 103.75"/><polygon class="cls-193" points="58.18 104.95 52.85 107.23 57.52 104.26 58.18 104.95"/><polygon class="cls-194" points="71.27 107.64 70.15 106.53 70.84 108.17 71.27 107.64"/><polygon class="cls-195" points="70.84 108.17 70.15 106.53 66.88 106.53 70.84 108.17"/><polygon class="cls-196" points="70.15 106.53 64.16 104.33 66.88 106.53 70.15 106.53"/><polygon class="cls-197" points="66.88 106.53 63.43 105.39 64.16 104.33 66.88 106.53"/><polygon class="cls-198" points="64.16 104.33 63.43 105.39 60.73 105.92 64.16 104.33"/><polygon class="cls-199" points="64.16 104.33 60.73 105.92 58.18 104.95 64.16 104.33"/><polygon class="cls-200" points="60.73 105.92 54.3 108.63 58.18 104.95 60.73 105.92"/><polygon class="cls-201" points="58.18 104.95 52.85 107.23 54.3 108.63 58.18 104.95"/><polygon class="cls-202" points="54.3 108.63 50.34 109.8 53.89 109.8 54.3 108.63"/><polygon class="cls-203" points="54.3 108.63 52.85 107.23 50.34 109.8 54.3 108.63"/><polygon class="cls-204" points="52.85 107.23 44.98 103.04 50.34 109.8 52.85 107.23"/><polygon class="cls-205" points="44.98 103.04 48.84 100.5 52.85 107.23 44.98 103.04"/><polygon class="cls-206" points="48.84 100.5 57.52 104.26 52.85 107.23 48.84 100.5"/><polygon class="cls-207" points="48.84 100.5 58.5 99.08 57.52 104.26 48.84 100.5"/><polygon class="cls-208" points="57.52 104.26 61.79 103.75 58.5 99.08 57.52 104.26"/><polygon class="cls-209" points="58.5 99.08 67.87 104.28 61.79 103.75 58.5 99.08"/><polygon class="cls-210" points="58.5 99.08 68.75 100.5 67.87 104.28 58.5 99.08"/><polygon class="cls-211" points="71.86 106.91 68.75 100.5 67.87 104.28 71.86 106.91"/><polygon class="cls-211" points="70.15 106.53 65.91 104.76 64.16 104.33 70.15 106.53"/><polygon class="cls-212" points="83.19 115.39 87.08 109.8 87.08 82.67 83.19 115.39"/><polygon class="cls-213" points="83.19 115.39 80.39 107.47 87.08 82.67 83.19 115.39"/><polygon class="cls-214" points="80.39 107.47 78.3 100.25 87.08 82.67 80.39 107.47"/><polygon class="cls-215" points="78.3 100.25 68.51 95.59 71.27 84.92 78.3 100.25"/><polygon class="cls-216" points="68.51 95.59 57.1 92.79 71.27 84.92 68.51 95.59"/><polygon class="cls-217" points="57.1 92.79 46.15 74.16 71.27 84.92 57.1 92.79"/><polygon class="cls-218" points="57.1 92.79 44.98 99.95 46.15 74.16 57.1 92.79"/><polygon class="cls-219" points="44.98 99.95 37.53 93.61 39.05 83.2 44.98 99.95"/><polygon class="cls-220" points="44.98 99.95 39.05 83.2 46.15 74.16 44.98 99.95"/><polygon class="cls-221" points="78.3 100.25 71.27 84.92 82.9 91.04 78.3 100.25"/><polygon class="cls-222" points="82.9 91.04 87.08 82.67 71.27 84.92 82.9 91.04"/><polygon class="cls-223" points="122.09 99.08 118.94 95.59 113.47 96.75 122.09 99.08"/><polygon class="cls-224" points="108.58 95.07 118.94 95.59 113.47 96.75 108.58 95.07"/><polygon class="cls-225" points="113.47 96.75 103.31 99.08 108.58 95.07 113.47 96.75"/><polygon class="cls-226" points="108.58 95.07 103.31 99.08 94.32 101.47 108.58 95.07"/><polygon class="cls-227" points="103.31 99.08 95.3 102.58 94.32 101.47 103.31 99.08"/><polygon class="cls-228" points="87.08 109.8 94.32 101.47 95.3 102.58 87.08 109.8"/><polygon class="cls-229" points="87.08 109.8 97.4 106.53 95.3 102.58 87.08 109.8"/><polygon class="cls-230" points="93.23 107.85 89.01 112.83 87.08 109.8 93.23 107.85"/><polygon class="cls-231" points="97.4 106.53 107.65 103.04 95.3 102.58 97.4 106.53"/><polygon class="cls-232" points="95.3 102.58 103.31 99.08 107.65 103.04 95.3 102.58"/><polygon class="cls-233" points="107.65 103.04 116.73 103.04 103.31 99.08 107.65 103.04"/><polygon class="cls-234" points="103.31 99.08 113.47 96.75 116.73 103.04 103.31 99.08"/><polygon class="cls-235" points="113.47 96.75 119.83 98.47 120.69 101.88 113.47 96.75"/><polygon class="cls-236" points="113.47 96.75 116.73 103.04 120.69 101.88 113.47 96.75"/><polygon class="cls-237" points="116.73 103.04 121.1 105.63 120.69 101.88 116.73 103.04"/><polygon class="cls-238" points="122.09 99.08 120.69 101.88 119.83 98.47 122.09 99.08"/><polygon class="cls-239" points="121.1 105.63 116.03 111.89 114.69 108.76 121.1 105.63"/><polygon class="cls-240" points="114.69 108.76 111.84 106.53 121.1 105.63 114.69 108.76"/><polygon class="cls-241" points="116.73 103.04 121.1 105.63 111.84 106.53 116.73 103.04"/><polygon class="cls-242" points="111.84 106.53 107.4 106.43 107.65 103.04 111.84 106.53"/><polygon class="cls-243" points="111.84 106.53 107.65 103.04 116.73 103.04 111.84 106.53"/><polygon class="cls-244" points="121.1 105.63 120.69 111.18 116.03 111.89 121.1 105.63"/><polygon class="cls-245" points="107.4 106.43 101.56 107 107.65 103.04 107.4 106.43"/><polygon class="cls-246" points="107.65 103.04 97.4 106.53 101.56 107 107.65 103.04"/><polygon class="cls-247" points="101.56 107 95.3 111.7 97.4 106.53 101.56 107"/><polygon class="cls-248" points="97.4 106.53 93.23 107.85 95.3 111.7 97.4 106.53"/><polygon class="cls-249" points="93.23 107.85 95.3 111.7 90.16 118.77 93.23 107.85"/><polygon class="cls-250" points="93.23 107.85 90.16 118.77 89.01 112.83 93.23 107.85"/><polygon class="cls-251" points="87.08 109.8 89.01 112.83 87.15 122.51 87.08 109.8"/><polygon class="cls-252" points="89.01 112.83 90.16 118.77 87.15 122.51 89.01 112.83"/><polygon class="cls-253" points="116.03 111.89 114.17 109.33 114.69 108.76 116.03 111.89"/><polygon class="cls-254" points="114.69 108.76 111.84 106.53 114.17 109.33 114.69 108.76"/><polygon class="cls-255" points="114.17 109.33 110.02 107.35 112.61 107.46 114.17 109.33"/><polygon class="cls-256" points="112.61 107.46 111.84 106.53 110.02 107.35 112.61 107.46"/><polygon class="cls-257" points="110.02 107.35 107.4 106.43 111.84 106.53 110.02 107.35"/><polygon class="cls-258" points="107.4 106.43 103.86 106.77 110.02 107.35 107.4 106.43"/><polygon class="cls-259" points="103.86 106.77 101.56 107 98.46 109.33 103.86 106.77"/><polygon class="cls-260" points="98.46 109.33 95.77 114.22 96.31 110.94 98.46 109.33"/><polygon class="cls-261" points="96.31 110.94 95.3 111.7 95.77 114.22 96.31 110.94"/><polygon class="cls-262" points="95.3 111.7 95.77 114.22 90.16 118.77 95.3 111.7"/><polygon class="cls-263" points="116.03 111.89 114.05 110.94 114.17 109.33 116.03 111.89"/><polygon class="cls-264" points="114.17 109.33 110.02 107.35 106.94 108.05 114.17 109.33"/><polygon class="cls-265" points="110.02 107.35 103.86 106.77 106.94 108.05 110.02 107.35"/><polygon class="cls-266" points="106.94 108.05 102.52 108.21 103.86 106.77 106.94 108.05"/><polygon class="cls-267" points="103.86 106.77 98.46 109.33 102.52 108.21 103.86 106.77"/><polygon class="cls-268" points="102.52 108.21 98.43 110.61 98.46 109.33 102.52 108.21"/><polygon class="cls-269" points="98.46 109.33 98.43 110.61 95.77 114.22 98.46 109.33"/><polygon class="cls-270" points="114.17 109.33 114.05 110.94 111.31 108.83 114.17 109.33"/><polygon class="cls-271" points="114.05 110.94 112.31 113.76 110.9 109.8 114.05 110.94"/><polygon class="cls-272" points="114.05 110.94 111.31 108.83 110.9 109.8 114.05 110.94"/><polygon class="cls-273" points="111.31 108.83 106.94 108.05 110.9 109.8 111.31 108.83"/><polygon class="cls-274" points="110.9 109.8 106.49 108.83 106.94 108.05 110.9 109.8"/><polygon class="cls-275" points="112.31 113.76 109.82 115.23 110.02 114.22 112.31 113.76"/><polygon class="cls-276" points="112.31 113.76 110.9 109.8 111.06 114.01 112.31 113.76"/><polygon class="cls-277" points="109.82 115.23 103.86 114.91 110.02 114.22 109.82 115.23"/><polygon class="cls-277" points="103.86 114.91 105.96 113.76 109.98 114.22 103.86 114.91"/><polygon class="cls-278" points="109.98 114.22 110.9 109.8 111.06 114.01 109.98 114.22"/><polygon class="cls-279" points="110.9 109.8 105.96 113.76 109.98 114.22 110.9 109.8"/><polygon class="cls-280" points="110.9 109.8 106.49 108.83 106.94 109.54 110.9 109.8"/><polygon class="cls-281" points="110.9 109.8 106.94 109.54 106.94 110.77 110.9 109.8"/><polygon class="cls-282" points="110.9 109.8 106.94 110.77 106.95 111.66 110.9 109.8"/><polygon class="cls-281" points="106.95 111.66 110.9 109.8 106.81 113.07 106.95 111.66"/><polygon class="cls-283" points="106.81 113.07 106.95 111.66 105.96 113.76 106.81 113.07"/><polygon class="cls-284" points="106.94 109.54 106.94 110.77 104.26 112.01 106.94 109.54"/><polygon class="cls-285" points="106.94 110.77 106.95 111.66 104.26 112.01 106.94 110.77"/><polygon class="cls-286" points="106.94 109.54 106.49 108.83 104.88 111.44 106.94 109.54"/><polygon class="cls-287" points="106.49 108.83 102.52 108.21 106.94 108.05 106.49 108.83"/><polygon class="cls-288" points="106.49 108.83 104.26 112.01 104.15 109.8 106.49 108.83"/><polygon class="cls-289" points="106.49 108.83 102.52 108.21 104.15 109.8 106.49 108.83"/><polygon class="cls-290" points="104.15 109.8 103.31 110.94 102.52 109.7 104.15 109.8"/><polygon class="cls-291" points="104.15 109.8 103.26 108.92 102.52 109.7 104.15 109.8"/><polygon class="cls-292" points="103.26 108.92 102.52 108.21 102.52 109.7 103.26 108.92"/><polygon class="cls-293" points="102.52 108.21 98.43 110.61 99.26 111.19 102.52 108.21"/><polygon class="cls-294" points="102.52 109.7 102.52 108.21 100.59 109.97 102.52 109.7"/><polygon class="cls-295" points="99.26 111.19 100.59 113.5 101.34 111.44 99.26 111.19"/><polygon class="cls-296" points="101.34 111.44 101.34 110.42 99.26 111.19 101.34 111.44"/><polygon class="cls-297" points="99.26 111.19 100.59 109.97 101.34 110.42 99.26 111.19"/><polygon class="cls-298" points="104.15 109.8 104.26 112.01 103.31 110.94 104.15 109.8"/><polygon class="cls-299" points="102.52 109.7 103.31 110.94 100.59 109.97 102.52 109.7"/><polygon class="cls-299" points="100.59 109.97 101.34 110.42 102.05 110.49 100.59 109.97"/><polygon class="cls-300" points="101.34 111.44 102.52 111.66 103.31 110.94 101.34 111.44"/><polygon class="cls-301" points="103.31 110.94 102.05 110.49 101.34 111.44 103.31 110.94"/><polygon class="cls-302" points="102.05 110.49 101.34 110.42 101.34 111.44 102.05 110.49"/><polygon class="cls-303" points="103.31 110.94 104.26 112.01 102.52 111.66 103.31 110.94"/><polygon class="cls-304" points="101.34 111.44 102.52 111.66 100.59 113.5 101.34 111.44"/><polygon class="cls-305" points="102.52 111.66 104.26 112.01 103.26 114.73 102.52 111.66"/><polygon class="cls-306" points="104.26 112.01 105.96 113.76 103.86 114.91 104.26 112.01"/><polygon class="cls-307" points="106.95 111.66 105.96 113.76 104.26 112.01 106.95 111.66"/><polygon class="cls-308" points="104.26 112.01 103.86 114.91 103.26 114.73 104.26 112.01"/><polygon class="cls-309" points="102.52 111.66 103.26 114.73 100.59 113.5 102.52 111.66"/><polygon class="cls-310" points="98.43 110.61 99.26 111.19 95.77 114.22 98.43 110.61"/><polygon class="cls-311" points="95.77 114.22 100.59 113.5 99.26 111.19 95.77 114.22"/><polygon class="cls-312" points="95.77 114.22 98.43 114.91 97.7 113.94 95.77 114.22"/><polygon class="cls-313" points="97.7 113.94 100.59 113.5 100.48 114.33 97.7 113.94"/><polygon class="cls-314" points="97.7 113.94 98.43 114.91 100.48 114.33 97.7 113.94"/><polygon class="cls-315" points="100.48 114.33 103.26 114.73 100.59 113.5 100.48 114.33"/><polygon class="cls-316" points="98.43 114.91 100.48 114.33 103.26 114.73 98.43 114.91"/><polygon class="cls-316" points="103.86 114.91 103.26 114.73 98.43 114.91 103.86 114.91"/><polygon class="cls-288" points="106.49 108.83 104.88 111.44 104.26 112.01 106.49 108.83"/><polygon class="cls-317" points="116.03 111.89 114.05 110.94 112.31 113.76 116.03 111.89"/><polygon class="cls-318" points="116.03 111.89 120.92 120.05 120.69 111.18 116.03 111.89"/><polygon class="cls-319" points="116.03 111.89 112.31 113.76 118.04 115.23 116.03 111.89"/><polygon class="cls-320" points="112.31 113.76 118.04 115.23 109.82 115.23 112.31 113.76"/><polygon class="cls-277" points="109.98 114.22 110.27 112.83 107.65 113.95 109.98 114.22"/><polygon class="cls-321" points="118.04 115.23 116.27 122.61 120.23 129.13 118.04 115.23"/><polygon class="cls-322" points="120.92 120.05 120.23 129.13 118.04 115.23 120.92 120.05"/><polygon class="cls-323" points="118.04 115.23 116.27 122.61 112.74 118.24 118.04 115.23"/><polygon class="cls-324" points="118.04 115.23 112.74 118.24 113.56 116.74 118.04 115.23"/><polygon class="cls-325" points="118.04 115.23 109.82 115.23 113.56 116.74 118.04 115.23"/><polygon class="cls-326" points="113.56 116.74 112.74 118.24 106.94 117.67 113.56 116.74"/><polygon class="cls-327" points="113.56 116.74 109.82 115.23 106.94 117.67 113.56 116.74"/><polygon class="cls-328" points="109.82 115.23 103.86 114.91 106.94 117.67 109.82 115.23"/><polygon class="cls-329" points="106.94 117.67 98.43 114.91 103.86 114.91 106.94 117.67"/><polygon class="cls-330" points="95.77 114.22 96.04 119 90.16 118.77 95.77 114.22"/><polygon class="cls-331" points="95.77 114.22 95.81 118.77 98.43 114.91 95.77 114.22"/><polygon class="cls-332" points="106.94 117.67 100.84 117.67 98.43 114.91 106.94 117.67"/><polygon class="cls-333" points="98.43 114.91 100.84 117.67 95.81 118.77 98.43 114.91"/><polygon class="cls-334" points="90.16 118.77 89.01 123.91 87.15 122.51 90.16 118.77"/><polygon class="cls-335" points="89.01 123.91 92.73 126.5 90.16 118.77 89.01 123.91"/><polygon class="cls-336" points="90.16 118.77 95.81 118.77 92.73 126.5 90.16 118.77"/><polygon class="cls-337" points="92.73 126.5 96 131.46 97.7 128.1 92.73 126.5"/><polygon class="cls-338" points="92.73 126.5 95.81 118.77 97.7 128.1 92.73 126.5"/><polygon class="cls-339" points="95.81 118.77 100.84 117.67 102.99 120.51 95.81 118.77"/><polygon class="cls-340" points="100.84 117.67 106.94 117.67 102.99 120.51 100.84 117.67"/><polygon class="cls-341" points="106.94 117.67 112.74 118.24 102.99 120.51 106.94 117.67"/><polygon class="cls-342" points="112.74 118.24 116.27 122.61 108.96 121.12 112.74 118.24"/><polygon class="cls-343" points="112.74 118.24 108.96 121.12 102.99 120.51 112.74 118.24"/><polygon class="cls-344" points="87.15 122.51 92.73 126.5 87.15 137.75 87.15 122.51"/><polygon class="cls-345" points="92.73 126.5 96 131.46 91.42 137.75 92.73 126.5"/><polygon class="cls-346" points="92.73 126.5 87.15 137.75 91.42 137.75 92.73 126.5"/><polygon class="cls-347" points="96 131.46 96.47 133.56 91.42 137.75 96 131.46"/><polygon class="cls-348" points="96 131.46 99.21 131.97 97.7 128.1 96 131.46"/><polygon class="cls-349" points="96 131.46 99.21 131.97 96.47 133.56 96 131.46"/><polygon class="cls-350" points="87.15 137.75 87.15 140.08 91.42 137.75 87.15 137.75"/><polygon class="cls-351" points="87.15 140.08 89.71 143.57 87.15 144.04 87.15 140.08"/><polygon class="cls-352" points="91.42 137.75 87.15 140.08 89.71 143.57 91.42 137.75"/><polygon class="cls-353" points="89.71 143.57 92.04 143.34 91.42 137.75 89.71 143.57"/><polygon class="cls-354" points="92.04 143.34 94.22 140.66 91.42 137.75 92.04 143.34"/><polygon class="cls-355" points="94.22 140.66 96.47 133.56 91.42 137.75 94.22 140.66"/><polygon class="cls-356" points="94.22 140.66 97.27 140.2 92.04 143.34 94.22 140.66"/><polygon class="cls-357" points="93.55 142.43 96.86 141.82 96.23 140.82 93.55 142.43"/><polygon class="cls-358" points="96.47 133.56 100.31 136.82 98.39 133.89 96.47 133.56"/><polygon class="cls-359" points="96.47 133.56 99.21 131.97 98.39 133.89 96.47 133.56"/><polygon class="cls-360" points="96.47 133.56 100.31 136.82 94.22 140.66 96.47 133.56"/><polygon class="cls-361" points="94.22 140.66 100.31 136.82 100.31 138.53 94.22 140.66"/><polygon class="cls-362" points="94.22 140.66 100.31 138.53 97.27 140.2 94.22 140.66"/><polygon class="cls-363" points="97.27 140.2 96.86 141.82 100.31 138.53 97.27 140.2"/><polygon class="cls-364" points="98.39 133.89 99.21 131.97 100.31 136.82 98.39 133.89"/><polygon class="cls-365" points="96.86 141.82 96 143.57 99.35 141.77 96.86 141.82"/><polygon class="cls-366" points="100.31 138.53 99.35 141.77 96.86 141.82 100.31 138.53"/><polygon class="cls-367" points="96.86 141.82 97.27 140.2 96.23 140.82 96.86 141.82"/><polygon class="cls-368" points="96.86 141.82 93.55 142.43 96 143.57 96.86 141.82"/><polygon class="cls-369" points="93.55 142.43 92.04 143.34 96 143.57 93.55 142.43"/><polygon class="cls-370" points="87.15 144.04 89.71 143.57 91.82 144.77 87.31 145.32 87.15 144.04"/><polygon class="cls-371" points="91.82 144.77 96 143.57 92.04 143.34 91.82 144.77"/><polygon class="cls-372" points="92.04 143.34 89.71 143.57 91.82 144.77 92.04 143.34"/><polygon class="cls-359" points="95.81 118.77 97.7 128.1 102.99 120.51 95.81 118.77"/><polygon class="cls-373" points="102.99 120.51 108.96 121.12 101.47 132.84 102.99 120.51"/><polygon class="cls-374" points="102.99 120.51 97.7 128.1 101.47 132.84 102.99 120.51"/><polygon class="cls-375" points="97.7 128.1 101.47 132.84 99.21 131.97 97.7 128.1"/><polygon class="cls-376" points="99.21 131.97 101.47 132.84 100.31 136.82 99.21 131.97"/><polygon class="cls-377" points="101.47 132.84 103.22 136.12 100.31 136.82 101.47 132.84"/><polygon class="cls-378" points="100.31 136.82 101.77 138.91 103.22 136.12 100.31 136.82"/><polygon class="cls-379" points="100.31 136.82 101.77 138.91 100.31 138.53 100.31 136.82"/><polygon class="cls-380" points="100.31 138.53 101.77 138.91 99.35 141.77 100.31 138.53"/><polygon class="cls-381" points="108.96 121.12 112.74 134.4 101.47 132.84 108.96 121.12"/><polygon class="cls-360" points="116.27 122.61 108.96 121.12 112.74 134.4 116.27 122.61"/><polygon class="cls-382" points="120.23 129.13 112.74 134.4 116.27 122.61 120.23 129.13"/><polygon class="cls-383" points="120.23 129.13 117.31 140.82 112.74 134.4 120.23 129.13"/><polygon class="cls-384" points="101.47 132.84 112.74 134.4 103.22 136.12 101.47 132.84"/><polygon class="cls-385" points="112.74 134.4 108.4 148.23 104.43 141.01 112.74 134.4"/><polygon class="cls-386" points="112.74 134.4 103.22 136.12 104.43 141.01 112.74 134.4"/><polygon class="cls-387" points="103.22 136.12 104.43 141.01 101.77 138.91 103.22 136.12"/><polygon class="cls-388" points="112.74 134.4 117.31 140.82 108.4 148.23 112.74 134.4"/><polygon class="cls-389" points="117.31 140.82 111.02 157.4 108.4 148.23 117.31 140.82"/><polygon class="cls-388" points="101.77 138.91 104.43 141.01 99.35 141.77 101.77 138.91"/><polygon class="cls-390" points="87.31 182.41 90.88 165.24 87.31 165.84 87.31 182.41"/><polygon class="cls-391" points="87.31 182.41 92.22 175.97 90.88 165.24 87.31 182.41"/><polygon class="cls-392" points="87.31 182.41 95.21 181.21 92.22 175.97 87.31 182.41"/><polygon class="cls-393" points="95.21 181.21 100.34 176.92 99.59 157.78 95.21 181.21"/><polygon class="cls-394" points="100.34 176.92 106.25 166.4 99.59 157.78 100.34 176.92"/><polygon class="cls-395" points="95.21 181.21 92.22 175.97 99.59 157.78 95.21 181.21"/><polygon class="cls-396" points="92.22 175.97 90.88 165.24 94.65 162.68 92.22 175.97"/><polygon class="cls-397" points="94.65 162.68 99.59 157.78 92.22 175.97 94.65 162.68"/><polygon class="cls-398" points="106.25 166.4 111.02 157.4 108.4 148.23 106.25 166.4"/><polygon class="cls-399" points="99.59 157.78 101.89 153.61 106.25 166.4 99.59 157.78"/><polygon class="cls-400" points="101.89 153.61 108.4 148.23 106.25 166.4 101.89 153.61"/><polygon class="cls-401" points="108.4 148.23 104.43 141.01 102.33 145.5 108.4 148.23"/><polygon class="cls-402" points="104.43 141.01 99.35 141.77 102.33 145.5 104.43 141.01"/><polygon class="cls-403" points="108.4 148.23 101.47 153.02 103.75 148.35 108.4 148.23"/><polygon class="cls-404" points="108.4 148.23 102.33 145.5 103.75 148.35 108.4 148.23"/><polygon class="cls-376" points="102.33 145.5 96 143.57 99.35 141.77 102.33 145.5"/><polygon class="cls-405" points="102.33 145.5 103.75 148.35 98.39 152.73 102.33 145.5"/><polygon class="cls-406" points="101.47 153.02 98.39 152.73 103.75 148.35 101.47 153.02"/><polygon class="cls-406" points="101.89 153.61 104.35 151.03 108.4 148.23 101.89 153.61"/><polygon class="cls-407" points="101.89 153.61 101.47 153.02 104.35 151.03 101.89 153.61"/><polygon class="cls-408" points="102.33 145.5 96 143.57 90.88 151.73 102.33 145.5"/><polygon class="cls-409" points="98.39 152.73 94.65 151.86 102.33 145.5 98.39 152.73"/><polygon class="cls-410" points="94.65 151.86 90.88 151.73 102.33 145.5 94.65 151.86"/><polygon class="cls-411" points="87.31 153.61 89.77 152.21 87.31 145.32 87.31 153.61"/><polygon class="cls-412" points="89.77 152.21 89.94 146.02 87.31 145.32 89.77 152.21"/><polygon class="cls-413" points="87.31 145.32 91.82 144.77 89.94 146.02 87.31 145.32"/><polygon class="cls-414" points="96 143.57 90.88 151.73 91.82 144.77 96 143.57"/><polygon class="cls-415" points="91.82 144.77 89.94 146.02 89.77 152.21 91.82 144.77"/><polygon class="cls-416" points="89.77 152.21 90.88 151.73 91.82 144.77 89.77 152.21"/><polygon class="cls-417" points="87.31 157.95 90.88 156.62 87.31 156.85 87.31 157.95"/><polygon class="cls-418" points="87.31 157.95 87.31 161.28 90.88 156.62 87.31 157.95"/><polygon class="cls-419" points="87.31 161.28 90.88 165.24 87.31 165.84 87.31 161.28"/><polygon class="cls-420" points="90.88 165.24 94.65 162.68 92.76 159.53 90.88 165.24"/><polygon class="cls-421" points="90.88 165.24 87.31 161.28 92.76 159.53 90.88 165.24"/><polygon class="cls-422" points="92.76 159.53 99.59 157.78 94.65 162.68 92.76 159.53"/><polygon class="cls-423" points="94.89 158.99 98.39 155.63 99.59 157.78 94.89 158.99"/><polygon class="cls-424" points="99.59 157.78 101.89 153.61 98.94 156.62 99.59 157.78"/><polygon class="cls-425" points="101.89 153.61 101.47 153.02 98.94 156.62 101.89 153.61"/><polygon class="cls-426" points="98.94 156.62 98.39 155.63 101.47 153.02 98.94 156.62"/><polygon class="cls-427" points="87.31 153.61 87.31 156.85 94.02 153.02 87.31 153.61"/><polygon class="cls-428" points="87.31 153.61 90.67 152.32 94.02 153.02 87.31 153.61"/><polygon class="cls-429" points="87.31 153.61 89.71 152.19 90.88 151.73 90.67 152.32 87.31 153.61"/><polygon class="cls-430" points="90.88 151.73 94.65 151.86 90.67 152.32 90.88 151.73"/><polygon class="cls-431" points="90.67 152.32 94.65 151.86 98.39 152.73 90.67 152.32"/><polygon class="cls-432" points="90.67 152.32 94.02 153.02 98.39 152.73 90.67 152.32"/><polygon class="cls-433" points="101.47 153.02 98.39 152.73 94.02 153.02 99.21 153.59 101.47 153.02"/><polygon class="cls-434" points="87.31 156.85 90.88 156.62 94.02 153.02 87.31 156.85"/><polygon class="cls-435" points="90.88 156.62 92.76 159.53 87.31 161.28 90.88 156.62"/><polygon class="cls-436" points="90.88 156.62 94.89 158.99 92.76 159.53 90.88 156.62"/><polygon class="cls-437" points="90.88 156.62 94.53 156.02 94.89 158.99 90.88 156.62"/><polygon class="cls-438" points="94.89 158.99 98.39 155.63 94.53 156.02 94.89 158.99"/><polygon class="cls-439" points="94.02 153.02 98.39 155.63 90.88 156.62 94.02 153.02"/><polygon class="cls-440" points="99.21 153.59 98.39 155.63 94.02 153.02 99.21 153.59"/><polygon class="cls-441" points="98.39 155.63 101.47 153.02 99.21 153.59 98.39 155.63"/><polygon class="cls-442" points="87.08 82.67 87.08 58.08 71.27 84.92 87.08 82.67"/><polygon class="cls-443" points="71.27 84.92 46.15 74.16 65.16 62.41 71.27 84.92"/><polygon class="cls-444" points="71.27 84.92 65.16 62.41 87.08 58.08 71.27 84.92"/><polygon class="cls-445" points="87.08 58.08 77.08 55.72 65.16 62.41 87.08 58.08"/><polygon class="cls-446" points="77.08 55.72 64.18 58.08 65.16 62.41 77.08 55.72"/><polygon class="cls-447" points="64.18 58.08 65.16 62.41 46.15 74.16 64.18 58.08"/><polygon class="cls-448" points="87.08 58.08 87.08 55.72 77.08 55.72 87.08 58.08"/><polygon class="cls-449" points="87.08 55.72 87.08 33.06 77.08 55.72 87.08 55.72"/><polygon class="cls-450" points="77.08 55.72 73.17 32.46 87.08 33.06 77.08 55.72"/><polygon class="cls-451" points="77.08 55.72 64.18 58.08 73.17 32.46 77.08 55.72"/><polygon class="cls-452" points="73.17 32.46 61.13 32.46 68.13 46.84 73.17 32.46"/><polygon class="cls-453" points="64.18 58.08 68.13 46.84 61.13 32.46 64.18 58.08"/><polygon class="cls-454" points="61.13 32.46 44.98 42.94 34.27 59.71 61.13 32.46"/><polygon class="cls-455" points="61.13 32.46 64.18 58.08 46.15 74.16 61.13 32.46"/><polygon class="cls-456" points="61.06 32.46 46.15 74.16 39.05 83.2 61.06 32.46"/><polygon class="cls-457" points="61.06 32.46 34.27 59.71 39.05 83.2 61.06 32.46"/><polygon class="cls-458" points="43.5 45.27 36.83 51.56 34.27 59.71 43.5 45.27"/><polygon class="cls-459" points="34.27 59.71 29.38 74.16 37.53 107 34.27 59.71"/><polygon class="cls-460" points="34.27 59.71 39.05 83.2 37.53 93.61 34.27 59.71"/><polygon class="cls-461" points="34.27 59.71 37.53 93.61 37.53 107 34.27 59.71"/><polygon class="cls-462" points="30.31 77.9 32.27 96.64 37.53 107 30.31 77.9"/><polygon class="cls-463" points="37.53 107 32.27 96.64 29.38 95.94 37.53 107"/><polygon class="cls-464" points="29.38 95.94 26.88 99.08 32.74 100.5 29.38 95.94"/><polygon class="cls-465" points="26.88 99.08 26.88 104.33 32.74 100.5 26.88 99.08"/><polygon class="cls-466" points="26.88 104.33 30.31 108.52 29.81 102.41 26.88 104.33"/><polygon class="cls-467" points="32.74 100.5 32.74 105.75 37.53 107 32.74 100.5"/><polygon class="cls-468" points="37.53 107 34.27 113.06 30.31 116.15 37.53 107"/><polygon class="cls-469" points="32.74 100.5 29.81 102.41 32.74 105.75 32.74 100.5"/><polygon class="cls-470" points="29.81 102.41 30.31 108.52 32.74 105.75 29.81 102.41"/><polygon class="cls-471" points="30.31 108.52 30.31 116.15 35.13 110.04 30.31 108.52"/><polygon class="cls-472" points="35.13 110.04 37.53 107 32.74 105.75 35.13 110.04"/><polygon class="cls-473" points="35.13 110.04 32.74 105.75 30.31 108.52 35.13 110.04"/><polygon class="cls-474" points="37.53 107 38.75 122.83 36.81 116.84 37.53 107"/><polygon class="cls-475" points="37.53 107 36.81 116.84 35.13 117.25 37.53 107"/><polygon class="cls-476" points="37.53 107 34.27 113.06 35.13 117.25 37.53 107"/><polygon class="cls-477" points="34.27 113.06 30.31 116.15 30.77 120.28 34.27 113.06"/><polygon class="cls-478" points="34.27 113.06 35.13 117.25 30.77 120.28 34.27 113.06"/><polygon class="cls-479" points="36.81 116.84 38.75 122.83 39.46 132.13 36.81 116.84"/><polygon class="cls-480" points="39.38 131.63 35.62 131 37.53 128 39.38 131.63"/><polygon class="cls-481" points="39.38 131.63 37.53 128 38.14 124.48 39.38 131.63"/><polygon class="cls-482" points="35.13 117.25 30.77 120.28 30.77 123.68 35.13 117.25"/><polygon class="cls-483" points="35.13 117.25 38.14 124.48 36.81 116.84 35.13 117.25"/><polygon class="cls-484" points="35.13 117.25 38.14 124.48 35.9 124.48 35.13 117.25"/><polygon class="cls-205" points="35.69 122.52 34.27 121.61 35.13 117.25 35.69 122.52"/><polygon class="cls-485" points="35.13 117.25 34.27 121.61 32.82 120.66 35.13 117.25"/><polygon class="cls-486" points="32.82 120.66 30.77 123.68 31.23 125.77 32.82 120.66"/><polygon class="cls-487" points="32.82 120.66 34.27 121.61 32.02 123.22 32.82 120.66"/><polygon class="cls-488" points="31.23 125.77 34.5 130.3 36.33 127.35 31.23 125.77"/><polygon class="cls-489" points="36.33 127.35 38.14 124.48 35.9 124.48 36.33 127.35"/><polygon class="cls-490" points="36.33 127.35 31.23 125.77 32.72 124.94 36.33 127.35"/><polygon class="cls-491" points="32.72 124.94 32.02 123.22 31.23 125.77 32.72 124.94"/><polygon class="cls-488" points="36.33 127.35 35.9 124.48 32.72 124.94 36.33 127.35"/><polygon class="cls-492" points="34.27 121.61 32.72 124.94 32.02 123.22 34.27 121.61"/><polygon class="cls-493" points="32.72 124.94 35.9 124.48 34.27 121.61 32.72 124.94"/><polygon class="cls-494" points="35.9 124.48 35.69 122.52 34.27 121.61 35.9 124.48"/><polygon class="cls-495" points="38.14 124.48 37.53 128 36.33 127.35 38.14 124.48"/><polygon class="cls-496" points="36.33 127.35 37.53 128 35.62 131 36.33 127.35"/><polygon class="cls-497" points="36.33 127.35 34.5 130.3 35.62 131 36.33 127.35"/><polygon class="cls-498" points="35.62 131 34.27 136.74 33.78 133.12 35.62 131"/><polygon class="cls-499" points="34.5 130.3 35.62 131 33.78 133.12 34.5 130.3"/><polygon class="cls-500" points="34.27 136.74 36.57 141.01 35.9 137.98 34.27 136.74"/><polygon class="cls-501" points="34.27 136.74 35.02 133.54 35.9 137.98 34.27 136.74"/><polygon class="cls-502" points="36.57 141.01 38.7 141.71 41.16 139.93 36.57 141.01"/><polygon class="cls-503" points="36.57 141.01 36.1 138.87 38.29 140.61 36.57 141.01"/><polygon class="cls-504" points="87.08 33.06 80.39 27.57 73.17 32.46 87.08 33.06"/><polygon class="cls-505" points="80.39 27.57 73.6 27.57 73.17 32.46 80.39 27.57"/><polygon class="cls-506" points="87.08 33.06 87.08 23.77 80.39 27.57 87.08 33.06"/><polygon class="cls-507" points="52.72 37.92 52.72 30.76 61.06 32.46 52.72 37.92"/><polygon class="cls-508" points="52.72 30.76 63.16 16.85 61.06 32.46 52.72 30.76"/><polygon class="cls-509" points="87.08 23.77 87.08 13.59 80.39 27.57 87.08 23.77"/><polygon class="cls-510" points="80.39 27.57 63.16 16.85 73.6 27.57 80.39 27.57"/><polygon class="cls-511" points="73.17 32.06 73.6 27.57 63.16 16.85 73.17 32.06"/><polygon class="cls-512" points="61.06 32.46 63.16 16.85 73.17 32.46 61.06 32.46"/><polygon class="cls-513" points="73.6 23.35 87.08 13.59 80.39 27.57 73.6 23.35"/><polygon class="cls-514" points="63.16 16.85 87.08 13.59 73.6 23.35 63.16 16.85"/><polygon class="cls-515" points="87.08 13.59 98.66 22.21 87.08 23.77 87.08 13.59"/><polygon class="cls-516" points="98.66 22.21 107.05 39.65 94.02 33.06 98.66 22.21"/><polygon class="cls-508" points="98.66 22.21 87.08 23.77 94.02 33.06 98.66 22.21"/><polygon class="cls-508" points="87.08 23.77 94.02 33.06 87.08 33.06 87.08 23.77"/><polygon class="cls-517" points="94.02 33.06 87.08 55.72 87.08 33.06 94.02 33.06"/><polygon class="cls-518" points="94.02 33.06 102.52 54.82 87.08 55.72 94.02 33.06"/><polygon class="cls-519" points="94.02 33.06 107.05 39.65 102.52 54.82 94.02 33.06"/><polygon class="cls-520" points="107.05 39.65 116.41 56.9 102.52 54.82 107.05 39.65"/><polygon class="cls-521" points="102.52 54.82 114.64 66.47 116.41 56.9 102.52 54.82"/><polygon class="cls-522" points="114.64 66.47 122.32 75.55 116.41 56.9 114.64 66.47"/><polygon class="cls-523" points="116.41 56.9 122.32 67.87 122.32 75.55 116.41 56.9"/><polygon class="cls-524" points="122.32 67.87 125.12 78.81 122.32 75.55 122.32 67.87"/><polygon class="cls-525" points="122.32 75.55 123.25 89.53 125.12 78.81 122.32 75.55"/><polygon class="cls-526" points="124.67 81.39 124.67 91.29 123.25 89.53 124.67 81.39"/><polygon class="cls-527" points="122.09 99.08 125.12 96.38 124.67 91.29 122.09 99.08"/><polygon class="cls-528" points="124.67 91.29 123.25 89.53 122.09 99.08 124.67 91.29"/><polygon class="cls-529" points="87.08 55.72 104.55 58.08 102.52 54.82 87.08 55.72"/><polygon class="cls-530" points="102.52 54.82 114.64 66.47 104.55 58.08 102.52 54.82"/><polygon class="cls-531" points="87.08 55.72 87.08 58.08 92.97 61.34 87.08 55.72"/><polygon class="cls-532" points="87.08 58.08 87.08 82.67 92.97 61.34 87.08 58.08"/><polygon class="cls-533" points="87.08 55.72 92.97 61.34 104.55 58.08 87.08 55.72"/><polygon class="cls-534" points="92.97 61.34 114.64 66.47 104.55 58.08 92.97 61.34"/><polygon class="cls-535" points="92.97 61.34 87.08 82.67 101.56 72.01 92.97 61.34"/><polygon class="cls-536" points="101.56 72.01 92.97 61.34 114.64 66.47 101.56 72.01"/><polygon class="cls-537" points="114.64 66.47 122.32 75.55 123.25 89.53 114.64 66.47"/><polygon class="cls-538" points="114.64 66.47 101.56 72.01 123.25 89.53 114.64 66.47"/><polygon class="cls-539" points="101.56 72.01 87.08 82.67 94.32 101.47 101.56 72.01"/><polygon class="cls-540" points="87.08 82.67 94.32 101.47 87.08 109.8 87.08 82.67"/><polygon class="cls-541" points="94.32 101.47 108.58 95.07 98.77 83.36 94.32 101.47"/><polygon class="cls-542" points="108.58 95.07 101.56 72.01 98.77 83.36 108.58 95.07"/><polygon class="cls-543" points="101.56 72.01 123.25 89.53 108.58 95.07 101.56 72.01"/><polygon class="cls-544" points="108.58 95.07 118.94 95.59 123.25 89.53 108.58 95.07"/><polygon class="cls-545" points="118.94 95.59 122.09 99.08 123.25 89.53 118.94 95.59"/></svg>