<svg id="Capa_1" data-name="Capa 1" xmlns="http://www.w3.org/2000/svg" viewBox="0 0 361 55"><defs><style>.cls-1{fill:#009c57;}.cls-2{fill:#9e1779;}.cls-3{fill:#442a37;}.cls-4{fill:#e6310b;}.cls-5{fill:#2ab9cb;}.cls-6{fill:#a2c72d;}.cls-7{fill:#6d2b28;}.cls-8{fill:#00a341;}.cls-9{fill:#e82f81;}.cls-10{fill:#f9c7c1;}.cls-11{fill:#3ca4dd;}.cls-12{fill:#3ea4dd;}.cls-13{fill:#158f41;}.cls-14{fill:#f49200;}.cls-15{fill:#a07d23;}.cls-16{fill:#3d2f82;}.cls-17{fill:#791312;}.cls-18{fill:#fff;}</style></defs><path class="cls-1" d="M12.8,46.11h0a3.42,3.42,0,0,1-3.41-3.42V21.61a3.42,3.42,0,0,1,6.83,0V42.69A3.42,3.42,0,0,1,12.8,46.11Z"/><path class="cls-2" d="M21.89,18.27a12.69,12.69,0,0,0-6.16,1.58,3.42,3.42,0,0,1,.49,1.76v8.88c0-6.08,9.16-7.52,11-1.58a5.13,5.13,0,0,1,.25,1.58l3.43-8.41A12.55,12.55,0,0,0,21.89,18.27Z"/><path class="cls-3" d="M15.73,19.85A12.17,12.17,0,0,0,9.39,30.49a3.42,3.42,0,1,0,6.83,0V21.61a3.42,3.42,0,0,0-.49-1.76"/><rect class="cls-4" x="27.51" y="30.49" width="6.83" height="12.23"/><rect class="cls-5" x="45.63" y="30.49" width="6.83" height="12.23"/><path class="cls-6" d="M34.34,30.49h0c0-6.08,9.15-7.54,11-1.58a5.44,5.44,0,0,1,.24,1.58h6.83A12.31,12.31,0,0,0,40,18.27a12.62,12.62,0,0,0-9.07,3.81Z"/><path class="cls-7" d="M33.36,25.71a12.27,12.27,0,0,0-2.42-3.63,13.21,13.21,0,0,0-1.27,1.53,12,12,0,0,0-2.16,6.88,3.42,3.42,0,1,0,6.83,0A12.12,12.12,0,0,0,33.36,25.71Z"/><path class="cls-8" d="M49.05,27.07a3.42,3.42,0,0,0-3.42,3.42h0a3.42,3.42,0,1,0,6.83,0h0a3.42,3.42,0,0,0-3.41-3.42"/><path class="cls-9" d="M9.39,42.71a3.42,3.42,0,1,1,3.41,3.42A3.42,3.42,0,0,1,9.39,42.71Z"/><path class="cls-10" d="M45.63,42.71a3.42,3.42,0,1,1,3.42,3.42A3.42,3.42,0,0,1,45.63,42.71Z"/><path class="cls-11" d="M27.51,42.71a3.42,3.42,0,1,1,3.42,3.42A3.42,3.42,0,0,1,27.51,42.71Z"/><path class="cls-6" d="M77.31,21.34a13.6,13.6,0,0,0-8.45-2.94v6.83a6.94,6.94,0,0,1,5.79,3.18c3.18,4.81-.18,11.35-5.79,11.35v6.83a13.67,13.67,0,0,0,8.47-2.94l.4-.34V21.69Z"/><path class="cls-12" d="M84.06,22.09l-6.74-.75h0a3.08,3.08,0,0,0-.09.75c0,22.24,0,21,.11,21.54v0h0l6.72-.82V22.09Z"/><path class="cls-13" d="M77.31,21.34a3.08,3.08,0,0,0-.08.75c0,22.38,0,21,.1,21.56a14.27,14.27,0,0,0,0-22.31"/><path class="cls-14" d="M68.85,39.76h0a7.27,7.27,0,0,1,0-14.53V18.4C58.92,18.4,52.29,28.74,56.09,38a13.84,13.84,0,0,0,12.76,8.63Z"/><path class="cls-15" d="M68.85,18.4h0a3.42,3.42,0,0,0,0,6.83h0a3.42,3.42,0,1,0,0-6.83m0,21.36h0a3.42,3.42,0,0,0,0,6.83h0a3.42,3.42,0,1,0,0-6.83"/><path class="cls-4" d="M77.23,22.09a3.42,3.42,0,1,1,3.41,3.41A3.42,3.42,0,0,1,77.23,22.09Z"/><path class="cls-9" d="M77.23,42.82a3.42,3.42,0,1,1,3.41,3.42A3.42,3.42,0,0,1,77.23,42.82Z"/><path class="cls-6" d="M108.85,38c0-7.86-9.89-8.77-12.14-9.56-.51-.18-1.69-.67-1.89-1.17a.67.67,0,0,1,0-.23l-6.83,0c0,5,4.19,7.43,9.09,8.54,1.09.23,4.54,1,4.93,2.1a.79.79,0,0,1,0,.3Z"/><path class="cls-14" d="M92.43,37.76a10.85,10.85,0,0,0,6.29,2.12c1.51,0,3.29-.37,3.29-1.88h6.84c0,4.78-3.74,8.71-10.13,8.71a17.46,17.46,0,0,1-10-3.24Z"/><path class="cls-12" d="M105.83,20.59a24.84,24.84,0,0,0-3.21-1.41C95.53,16.7,88,19.51,88,27l6.83.06c0-.95.15-1.89,2.88-1.89,3.33,0,4.71,1.89,6.6,1.89Z"/><path class="cls-13" d="M91.37,23.61A3.42,3.42,0,0,0,88,27v0a3.43,3.43,0,0,0,3.42,3.39h0a3.42,3.42,0,0,0,0-6.84"/><path class="cls-15" d="M102,38a3.42,3.42,0,1,1,3.42,3.41A3.42,3.42,0,0,1,102,38Z"/><path class="cls-9" d="M100.84,23.62A3.42,3.42,0,1,1,104.26,27,3.42,3.42,0,0,1,100.84,23.62Z"/><path class="cls-16" d="M87.14,40.65a3.42,3.42,0,1,1,3.42,3.41A3.42,3.42,0,0,1,87.14,40.65Z"/><polyline class="cls-1" points="112.67 11.7 112.67 42.69 119.51 42.69 119.51 11.7"/><path class="cls-2" d="M130.8,30.49c0-6-8.55-7.37-10.86-2.06a5.07,5.07,0,0,0-.43,2.06h0V19.6c8.25-4.11,18.09,1.71,18.12,10.85Z"/><path class="cls-3" d="M119.51,19.6a12.41,12.41,0,0,0-4.67,4,12.09,12.09,0,0,0-1.59,3.22,11.73,11.73,0,0,0-.58,3.66,3.42,3.42,0,0,0,6.84,0V19.6"/><path class="cls-4" d="M137.63,42.72V30.49H130.8V42.72"/><path class="cls-17" d="M134.21,27.07a3.42,3.42,0,0,0-3.41,3.42h0a3.42,3.42,0,1,0,6.83,0h0v0a3.42,3.42,0,0,0-3.42-3.38"/><path class="cls-9" d="M112.67,11.7a3.42,3.42,0,1,1,3.42,3.42,3.42,3.42,0,0,1-3.42-3.42Z"/><path class="cls-11" d="M130.8,42.71a3.42,3.42,0,1,1,3.41,3.42A3.42,3.42,0,0,1,130.8,42.71Z"/><path class="cls-6" d="M112.67,42.71a3.42,3.42,0,1,1,3.42,3.42,3.42,3.42,0,0,1-3.42-3.42Z"/><path class="cls-6" d="M162.78,21.34a13.58,13.58,0,0,0-8.45-2.94v6.83a7,7,0,0,1,5.79,3.18c3.17,4.81-.18,11.35-5.79,11.35v6.83a13.65,13.65,0,0,0,8.47-2.94l.41-.34V21.69C163.07,21.57,162.93,21.45,162.78,21.34Z"/><path class="cls-12" d="M169.54,22.09l-6.74-.75h0a3.08,3.08,0,0,0-.09.75c0,22.24,0,21,.11,21.54v0h0l6.72-.82V22.09Z"/><path class="cls-13" d="M162.78,21.34a3.67,3.67,0,0,0-.08.75c0,22.38,0,21,.1,21.56a14.25,14.25,0,0,0,0-22.31"/><path class="cls-14" d="M154.33,39.76h0a7.27,7.27,0,0,1,0-14.53V18.4c-9.93,0-16.56,10.34-12.75,19.56a13.84,13.84,0,0,0,12.76,8.63Z"/><path class="cls-15" d="M154.33,18.4h0a3.42,3.42,0,1,0,0,6.83h0a3.42,3.42,0,1,0,0-6.83m0,21.36h0a3.42,3.42,0,1,0,0,6.83h0a3.42,3.42,0,1,0,0-6.83"/><path class="cls-4" d="M162.7,22.09a3.42,3.42,0,1,1,3.42,3.41A3.42,3.42,0,0,1,162.7,22.09Z"/><path class="cls-9" d="M162.7,42.82a3.42,3.42,0,1,1,3.42,3.42A3.42,3.42,0,0,1,162.7,42.82Z"/><path class="cls-18" d="M181.86,24.31a2,2,0,0,1,2.08-2A2,2,0,0,1,186,24.25a2.08,2.08,0,0,1-4.16.06Zm.54,5.25h3.07v17H182.4Z"/><path class="cls-18" d="M207.42,36.76v9.76h-3.07V37.11c0-3.32-1.66-5-4.57-5-3.27,0-5.38,2-5.38,5.64v8.73h-3.07v-17h2.94v2.56a7.27,7.27,0,0,1,6.11-2.72C204.51,29.4,207.42,31.77,207.42,36.76Z"/><path class="cls-18" d="M222.66,45.53a5.81,5.81,0,0,1-3.72,1.18c-3.42,0-5.37-1.88-5.37-5.31V32.09h-2.88V29.56h2.88V25.85h3.07v3.71h4.86v2.53h-4.86v9.18c0,1.83,1,2.85,2.66,2.85a3.89,3.89,0,0,0,2.4-.8Z"/><path class="cls-18" d="M241.06,39.07H227.3c.38,3,2.78,5,6.14,5a6.37,6.37,0,0,0,4.9-2.05L240,44a8.52,8.52,0,0,1-6.69,2.75c-5.47,0-9.12-3.61-9.12-8.67a8.31,8.31,0,0,1,8.52-8.64c4.89,0,8.38,3.52,8.38,8.74C241.12,38.39,241.09,38.78,241.06,39.07ZM227.3,36.86h10.88a5.47,5.47,0,0,0-10.88,0Z"/><path class="cls-18" d="M254.5,29.4v3a5.86,5.86,0,0,0-.71,0c-3.29,0-5.34,2-5.34,5.72v8.45h-3.07v-17h2.94v2.85C249.41,30.43,251.52,29.4,254.5,29.4Z"/><path class="cls-18" d="M271.68,36.28V46.52h-2.91V44.28c-1,1.54-2.92,2.43-5.57,2.43-3.84,0-6.27-2-6.27-5,0-2.72,1.76-5,6.81-5h4.87v-.61c0-2.59-1.51-4.09-4.55-4.09a8.57,8.57,0,0,0-5.37,1.82l-1.28-2.3a11.29,11.29,0,0,1,7-2.18C269.06,29.4,271.68,31.64,271.68,36.28Zm-3.07,5.06V39h-4.74c-3,0-3.9,1.18-3.9,2.62,0,1.7,1.41,2.75,3.74,2.75A4.92,4.92,0,0,0,268.61,41.34Z"/><path class="cls-18" d="M275.9,38c0-5,3.75-8.64,9-8.64A7.56,7.56,0,0,1,291.77,33l-2.33,1.5a5.3,5.3,0,0,0-4.61-2.43A5.63,5.63,0,0,0,279,38a5.62,5.62,0,0,0,5.82,6,5.28,5.28,0,0,0,4.61-2.44l2.33,1.48a7.59,7.59,0,0,1-6.91,3.64C279.65,46.71,275.9,43.1,275.9,38Z"/><path class="cls-18" d="M305.5,45.53a5.78,5.78,0,0,1-3.71,1.18c-3.42,0-5.38-1.88-5.38-5.31V32.09h-2.88V29.56h2.88V25.85h3.08v3.71h4.86v2.53h-4.86v9.18c0,1.83,1,2.85,2.65,2.85a3.87,3.87,0,0,0,2.4-.8Z"/><path class="cls-18" d="M308.67,24.31a2,2,0,0,1,2.08-2,2,2,0,0,1,2.08,1.95,2.08,2.08,0,0,1-4.16.06Zm.54,5.25h3.08v17h-3.08Z"/><path class="cls-18" d="M333.15,29.56l-7.42,17h-3.14l-7.42-17h3.2l5.82,13.6,5.95-13.6Z"/><path class="cls-18" d="M334,38a8.82,8.82,0,0,1,17.63,0A8.82,8.82,0,0,1,334,38Zm14.53,0a5.71,5.71,0,1,0-11.42,0,5.61,5.61,0,0,0,5.72,6C346.08,44,348.51,41.66,348.51,38Z"/></svg>