<svg id="Capa_1" data-name="Capa 1" xmlns="http://www.w3.org/2000/svg" viewBox="0 0 229 215"><defs><style>.cls-1{fill:#fff;}</style></defs><path class="cls-1" d="M143.76,162.13V183c2.66,0,5.22,0,7.77,0,6.38.14,10.47,4,10.74,10.41.14,3.27,0,6.55,0,10H67c0-4.13-.37-8.23.09-12.23.55-4.73,4.54-7.93,9.32-8.12,2.87-.12,5.74,0,8.78,0V162.13H82q-23.94,0-47.89,0c-9.7,0-15.4-5.73-15.41-15.49q0-51.31,0-102.64c0-7,2.94-11.63,9-14.14l2,5c-5.5,2.66-5.54,7.6-5.52,12.78.09,25,0,50,0,75v3.69H35V11.63H67V126.3h9.17c0-1.21.15-2.36.15-3.52,0-25.41,0-50.82.07-76.23a11.39,11.39,0,0,1,1.49-5.29c4-7,8.2-13.85,12.58-21.19,3.94,6.55,7.52,12.75,11.36,18.78a17.26,17.26,0,0,1,2.75,9.83c-.13,24.91,0,49.82-.1,74.73,0,2.16.31,3.17,2.89,3.16,31.53-.09,63.06-.06,94.59-.07.78,0,1.56-.1,2.63-.18.06-1.16.15-2.22.15-3.28q0-39,0-78c0-7.57-3.18-10.72-10.79-10.72H105.19V29c1,0,2-.14,3-.14,28.84,0,57.67.17,86.51-.11,9.1-.09,15.66,6.51,15.61,15.75q-.3,51,0,102c.06,9.48-6.8,15.92-15.65,15.72-15.76-.34-31.53-.09-47.29-.09ZM24.2,132.23v12.91c0,8.61,2.88,11.47,11.53,11.47q78.86,0,157.72,0a25.05,25.05,0,0,0,4.15-.31c3.9-.66,6.52-3.08,6.79-6.93.39-5.64.1-11.32.1-17.13ZM41,29.42v5.66H48.3v5.84H41.06v5.52H54.34v5.72H41.07v5.69h7.29V63.3H41V69h13.3V74.6H41v5.45l7.28.38V86H41.08V91.6H54.31v5.61H41v5.58h7.34v5.73H41.09v5.69h13.2v5.58H41.06v6.45h20v-109H41V24H54.32v5.44Zm50.2,153.14H137.6V162.3H91.22Zm7.46-71.27V49.48c-2.3,1.36-4.31,2.43-6.17,3.72a3.13,3.13,0,0,1-4.06,0c-1.91-1.3-4-2.35-6.2-3.62v61.7ZM72.35,197.8h83.9c1.35-6.42-.46-9.57-7.22-9.37-11.76.33-23.54.09-35.31.09s-23.75,0-35.62,0c-3.55,0-5.39,1.38-5.72,4.37A46.71,46.71,0,0,0,72.35,197.8Zm9.88-80.6v9.11H98.7V117.2Zm8.22-86.15-7.27,12.2C90.75,48.41,92,48.38,97.63,43Z"/><path class="cls-1" d="M198.8,40.22V71.81H133.66V40.22Zm-5.57,25.85V45.86h-54V66.07Z"/><path class="cls-1" d="M115.73,45.77h-5.27v-5.6h16.42v5.44h-5v69.45l5,.24v5.27H110.48v-5.26l5.25-.27Z"/><path class="cls-1" d="M169.13,77.71h29.62V98.06H169.13ZM193.3,92.48v-9H175v9Z"/><path class="cls-1" d="M163.26,98.12H133.68V77.71h29.58Zm-24.09-5.74h18.39V83.43H139.17Z"/><path class="cls-1" d="M136.24,111.29V106H149v5.32Z"/><path class="cls-1" d="M172,111.2v-5.43h12.72v5.43Z"/><path class="cls-1" d="M190.81,105.94H196v5.31h-5.21Z"/><path class="cls-1" d="M160.46,106v5.32h-5.28V106Z"/><path class="cls-1" d="M93.09,79.09V60.74H87.82V79.09Zm0,17.16H87.8v9.31h5.3Zm-5.34-5.59c1.09,0,1.87,0,2.65,0s1.72-.1,2.53-.15c.94-5.76.26-6.43-5.18-5.15Z"/><path class="cls-1" d="M111.8,146.88v-5.13h5.28v5.13Z"/><path class="cls-1" d="M100.57,141.68h5.24v5.18h-5.24Z"/><path class="cls-1" d="M123,147V141.8h5.38V147Z"/><path class="cls-1" d="M93.09,79.09H87.82V60.74h5.27Z"/><path class="cls-1" d="M93.1,96.25v9.31H87.8V96.25Z"/><path class="cls-1" d="M87.76,90.66V85.35c5.44-1.28,6.12-.61,5.18,5.15-.81,0-1.67.12-2.53.15S88.85,90.66,87.76,90.66Z"/></svg>